<?xml version="1.0" encoding="UTF-8" standalone="no"?>
<!DOCTYPE svg PUBLIC "-//W3C//DTD SVG 1.1//EN" "http://www.w3.org/Graphics/SVG/1.1/DTD/svg11.dtd">
<svg xmlns="http://www.w3.org/2000/svg" version="1.1" viewBox="0.00 0.00 474.00 842.00">
<g stroke-width="2.00" fill="none" stroke-linecap="butt">
<path stroke="#800000" vector-effect="non-scaling-stroke" d="
  M 118.62 266.00
  Q 113.09 274.41 107.96 285.18
  Q 93.14 316.30 91.27 350.24
  Q 91.08 353.64 91.30 354.52
  C 92.23 358.24 98.04 358.02 102.00 358.06
  Q 103.04 358.07 105.99 358.91
  Q 106.48 359.04 106.74 359.44
  Q 107.12 360.02 106.69 360.54
  Q 106.39 360.90 105.89 361.02
  C 101.22 362.15 96.56 361.96 92.02 362.97
  Q 88.73 363.70 89.17 366.99
  Q 89.24 367.50 89.67 367.78
  Q 91.85 369.22 94.37 369.74
  Q 105.30 372.02 118.33 373.64
  C 120.73 373.93 123.51 374.74 125.48 376.27
  A 2.21 2.21 0.0 0 1 125.77 379.50
  Q 124.42 380.99 122.37 381.73
  Q 115.16 384.34 108.36 384.82
  C 104.78 385.07 101.47 386.01 98.66 388.32
  A 1.11 1.10 48.3 0 0 98.57 389.95
  L 99.76 391.16"
/>
<path stroke="#6c0000" vector-effect="non-scaling-stroke" d="
  M 99.76 391.16
  Q 104.01 394.49 110.76 395.46
  Q 114.55 396.01 124.01 398.23
  Q 125.55 398.59 128.54 400.77
  C 133.45 404.34 127.43 407.63 124.48 408.42
  Q 120.35 409.52 116.18 410.84"
/>
<path stroke="#800000" vector-effect="non-scaling-stroke" d="
  M 116.18 410.84
  Q 107.58 411.58 102.62 412.62
  Q 101.01 412.97 98.87 414.51
  Q 98.44 414.82 98.26 415.33
  Q 97.23 418.33 100.80 419.69
  Q 106.87 422.01 115.38 422.81
  Q 132.72 424.42 148.71 426.67
  Q 156.40 427.76 163.49 430.74
  Q 165.81 431.71 167.21 433.43
  A 2.03 2.03 0.0 0 1 166.20 436.65
  L 160.88 438.21"
/>
<path stroke="#6c0000" vector-effect="non-scaling-stroke" d="
  M 160.88 438.21
  Q 154.42 438.78 147.26 440.29
  Q 145.10 440.75 143.52 442.08
  A 1.80 1.80 0.0 0 0 143.22 444.52
  C 145.10 447.10 149.82 448.07 152.72 448.68
  Q 160.79 450.37 168.53 451.68
  Q 169.91 451.91 171.19 452.89
  Q 171.67 453.25 171.27 453.69
  Q 169.42 455.72 166.96 456.58
  A 1.44 1.44 0.0 0 0 166.74 459.20
  Q 171.15 461.66 176.97 462.10
  Q 180.45 462.36 182.00 462.69
  C 183.91 463.08 188.02 463.40 189.10 465.19
  A 1.30 1.29 60.0 0 1 188.62 466.99
  Q 186.83 467.98 184.74 467.95
  Q 177.27 467.83 170.83 468.55
  Q 169.44 468.71 168.30 469.28
  C 165.76 470.56 163.95 473.80 167.98 475.05
  Q 172.96 476.59 176.68 477.67
  Q 180.07 478.65 185.57 479.55
  Q 196.10 481.28 205.72 484.93"
/>
<path stroke="#800000" vector-effect="non-scaling-stroke" d="
  M 205.72 484.93
  Q 210.19 490.83 205.00 492.46
  Q 197.35 494.88 191.61 495.38
  C 185.35 495.94 178.86 496.82 172.70 496.89
  C 166.16 496.97 159.60 496.70 153.02 497.83
  Q 144.93 499.21 137.12 500.49
  Q 132.47 501.25 129.65 503.39
  C 124.12 507.59 134.07 512.24 137.49 513.07"
/>
<path stroke="#6c0000" vector-effect="non-scaling-stroke" d="
  M 137.49 513.07
  Q 147.13 516.10 151.76 516.94
  Q 163.36 519.04 183.72 521.41
  C 189.70 522.10 195.74 523.45 201.48 525.15
  Q 204.66 526.09 206.97 528.54
  A 1.33 1.33 0.0 0 1 206.55 530.66
  Q 202.79 532.35 199.09 533.32
  Q 196.49 534.00 193.76 535.82
  C 192.21 536.85 192.53 539.16 193.88 540.13
  Q 196.54 542.03 200.50 542.92
  Q 208.66 544.77 217.29 546.40
  Q 222.37 547.37 227.71 551.59"
/>
<path stroke="#800000" vector-effect="non-scaling-stroke" d="
  M 227.71 551.59
  Q 228.74 553.39 228.66 556.01
  Q 228.56 559.32 225.77 559.80
  C 215.69 561.56 205.32 562.42 195.27 563.41
  C 190.93 563.84 186.33 564.95 181.97 565.88
  Q 178.57 566.62 179.38 569.99
  Q 181.36 578.17 180.57 587.18
  Q 180.37 589.52 181.00 591.95
  C 181.70 594.62 184.29 595.48 186.60 594.13
  C 190.06 592.12 187.16 583.67 186.36 580.68
  Q 185.79 578.54 187.37 576.70
  C 189.93 573.71 192.26 575.46 194.51 577.45
  Q 198.07 580.60 202.34 582.06"
/>
<path stroke="#6c0000" vector-effect="non-scaling-stroke" d="
  M 202.34 582.06
  C 204.69 582.95 207.94 582.98 208.99 585.56
  Q 210.69 589.72 210.69 594.75
  Q 210.69 603.11 209.39 609.94
  C 208.80 613.07 208.74 616.25 208.71 619.44
  C 208.67 623.88 213.59 623.46 214.66 619.95
  Q 215.63 616.77 216.43 613.49
  C 217.37 609.64 222.54 609.14 223.23 613.51
  Q 223.98 618.24 223.72 623.00
  C 223.20 632.58 222.73 642.06 222.58 651.59
  Q 222.53 655.19 222.28 659.19
  Q 221.84 666.34 221.74 684.75
  Q 221.72 688.68 224.19 691.49
  C 226.75 694.39 230.98 691.78 232.07 688.98
  Q 233.55 685.17 233.53 680.23
  Q 233.48 666.81 233.04 656.80
  Q 232.35 640.87 231.57 625.09
  C 231.24 618.34 231.21 610.71 232.17 603.84
  Q 232.92 598.40 234.15 593.49
  Q 235.24 589.15 237.80 585.38
  C 239.36 583.09 242.82 582.77 245.33 583.84
  Q 250.28 585.95 255.44 587.65
  Q 255.85 587.79 256.18 587.51
  C 259.63 584.62 262.34 580.99 267.21 580.11"
/>
<path stroke="#800000" vector-effect="non-scaling-stroke" d="
  M 267.21 580.11
  Q 271.48 579.76 275.76 579.45
  C 280.47 579.11 278.90 573.91 279.15 570.83"
/>
<path stroke="#6c0000" vector-effect="non-scaling-stroke" d="
  M 279.15 570.83
  Q 284.78 567.66 286.98 567.21
  C 291.32 566.31 299.60 564.02 300.36 558.73
  Q 301.07 553.87 295.46 552.42
  C 291.75 551.46 286.60 550.49 283.69 547.92
  A 1.11 1.10 -58.2 0 1 283.40 546.67
  Q 284.04 545.11 285.92 545.06
  Q 290.79 544.92 295.47 544.59
  Q 299.26 544.32 301.06 542.64
  C 303.06 540.76 304.95 538.77 307.73 537.98
  Q 313.13 536.45 319.19 535.14
  Q 320.51 534.85 320.99 533.78
  A 1.20 1.20 0.0 0 0 320.48 532.25
  C 316.47 530.03 312.81 528.55 307.99 527.56
  Q 302.93 526.52 297.89 525.33
  Q 296.36 524.97 296.03 524.12
  Q 295.58 522.95 296.81 522.70
  L 303.90 521.27"
/>
<path stroke="#800000" vector-effect="non-scaling-stroke" d="
  M 303.90 521.27
  Q 309.85 518.98 316.08 517.08
  C 320.06 515.86 323.65 516.01 327.20 513.43
  A 0.64 0.63 37.0 0 0 327.04 512.32
  C 324.36 511.36 320.49 510.25 320.00 506.92
  A 1.49 1.49 0.0 0 1 321.56 505.22
  C 325.71 505.46 329.04 505.40 332.84 503.23
  Q 336.16 501.34 339.26 499.68
  A 0.67 0.67 0.0 0 0 339.37 498.56
  Q 338.73 498.06 337.99 498.07
  Q 335.47 498.13 332.89 497.88
  Q 330.75 497.67 332.24 496.11
  C 333.99 494.31 338.93 494.36 341.56 494.22
  C 345.14 494.03 347.09 492.40 350.10 491.08
  C 352.42 490.06 354.93 489.72 357.37 489.14
  A 1.36 1.36 0.0 0 0 358.41 487.72
  C 358.23 484.93 351.66 483.63 349.53 483.45"
/>
<path stroke="#6c0000" vector-effect="non-scaling-stroke" d="
  M 349.53 483.45
  Q 342.68 482.19 337.73 483.40
  Q 330.06 485.27 323.28 483.99
  Q 316.81 482.76 315.89 482.65
  Q 308.77 481.77 301.72 480.01"
/>
<path stroke="#800000" vector-effect="non-scaling-stroke" d="
  M 301.72 480.01
  Q 295.50 478.42 289.32 476.41
  Q 287.79 475.91 286.40 475.02
  Q 285.97 474.75 285.85 474.26
  Q 285.34 472.20 286.93 470.14"
/>
<path stroke="#6c0000" vector-effect="non-scaling-stroke" d="
  M 286.93 470.14
  Q 289.63 467.97 294.76 467.82
  Q 304.48 467.54 309.74 467.53
  C 314.73 467.52 318.35 466.98 322.47 465.31
  Q 324.74 464.39 323.84 462.13
  A 1.86 1.85 85.6 0 0 322.54 461.01
  C 319.88 460.36 314.30 459.73 312.45 457.67
  A 1.64 1.63 -44.6 0 1 312.47 455.46
  C 315.30 452.41 322.59 451.65 326.45 451.43
  C 332.76 451.06 338.73 450.40 343.80 446.76
  A 1.53 1.53 0.0 0 0 343.89 444.34
  Q 342.05 442.79 339.78 441.97
  Q 335.76 440.52 330.74 440.17
  Q 325.42 439.80 321.48 439.06"
/>
<path stroke="#800000" vector-effect="non-scaling-stroke" d="
  M 321.48 439.06
  Q 319.48 437.87 320.59 436.84
  Q 322.66 434.94 326.58 435.32"
/>
<path stroke="#6c0000" vector-effect="non-scaling-stroke" d="
  M 326.58 435.32
  Q 336.04 436.84 339.25 436.04
  C 342.67 435.20 346.09 434.27 349.64 433.92
  Q 354.60 433.44 358.88 431.59
  A 1.42 1.42 0.0 0 0 359.32 429.28
  L 358.49 428.46
  A 1.35 1.34 60.8 0 1 359.13 426.19
  C 363.74 425.13 369.31 424.04 372.65 420.63
  C 373.98 419.28 372.95 417.47 371.18 417.37
  C 369.84 417.29 368.27 416.96 367.04 416.46
  Q 358.68 413.05 349.98 410.77"
/>
<path stroke="#800000" vector-effect="non-scaling-stroke" d="
  M 349.98 410.77
  L 347.77 410.03
  A 1.24 1.23 20.3 0 1 347.01 408.39
  Q 347.72 406.61 349.59 406.35
  C 353.08 405.86 356.63 405.85 359.97 404.58
  C 362.39 403.66 363.64 400.94 366.11 399.65
  Q 367.77 398.79 369.66 398.61
  C 373.03 398.30 377.36 397.74 380.02 396.00
  A 0.98 0.96 76.8 0 0 380.45 395.29
  Q 380.65 393.53 378.93 393.25
  Q 373.45 392.38 367.04 390.34
  Q 366.53 390.18 366.40 389.66
  A 0.89 0.88 78.4 0 1 367.11 388.58
  Q 371.68 387.83 374.92 385.26
  C 377.47 383.24 380.68 382.57 383.66 381.38
  Q 385.26 380.75 386.09 379.33
  Q 386.38 378.83 385.83 378.65
  Q 380.67 376.92 377.21 376.51
  Q 366.97 375.30 357.39 373.27
  A 0.73 0.73 0.0 0 1 356.87 372.26
  Q 357.14 371.67 357.76 371.50
  Q 364.51 369.70 372.38 368.10
  Q 377.68 367.02 382.03 365.06
  Q 383.29 364.49 382.39 363.10
  A 1.78 1.77 87.1 0 0 381.70 362.47
  Q 378.31 360.67 374.61 359.77
  Q 366.75 357.87 358.63 355.89
  Q 358.09 355.75 358.18 355.22
  A 0.73 0.73 0.0 0 1 358.82 354.63
  Q 368.50 353.63 371.08 353.78
  Q 375.28 354.02 379.39 353.90
  C 383.63 353.79 383.89 350.55 383.94 347.24
  C 384.40 318.45 376.33 290.01 359.72 266.38"
/>
<path stroke="#6c0000" vector-effect="non-scaling-stroke" d="
  M 359.72 266.38
  C 343.83 243.71 321.48 226.85 295.99 216.09
  Q 281.03 209.79 261.47 205.88
  C 256.37 204.86 251.23 204.67 246.02 204.02
  C 237.26 202.94 228.24 203.86 219.56 204.78
  Q 157.73 211.30 121.61 261.34
  Q 120.11 263.43 118.62 266.00"
/>
<path stroke="#ec0000" vector-effect="non-scaling-stroke" d="
  M 359.72 266.38
  Q 357.36 266.89 355.10 266.85
  Q 350.98 266.79 350.89 266.80
  Q 335.13 267.46 319.71 266.75
  C 313.53 266.46 307.37 267.02 301.18 266.60
  Q 294.58 266.16 287.34 266.28
  Q 265.25 266.66 243.17 266.70
  C 239.09 266.71 234.37 267.07 230.50 267.09
  Q 212.23 267.23 171.25 267.25
  Q 158.94 267.26 148.53 266.50
  Q 142.43 266.05 129.18 266.82
  Q 126.52 266.97 123.87 266.65
  Q 121.32 266.35 118.62 266.00"
/>
<path stroke="#ec0000" vector-effect="non-scaling-stroke" d="
  M 349.98 410.77
  Q 349.97 411.45 349.61 411.97
  Q 349.33 412.39 348.82 412.35
  Q 344.95 412.05 343.33 415.53
  A 1.32 1.31 -73.8 0 0 344.35 417.39
  Q 348.06 417.87 351.43 418.70
  C 353.22 419.14 353.66 420.97 354.00 422.51
  Q 354.12 423.09 353.56 423.26
  Q 347.73 425.00 342.04 426.11
  Q 336.14 427.26 333.16 431.45
  A 1.88 1.86 -64.5 0 1 331.15 432.17
  L 326.20 430.82
  Q 325.54 430.64 325.68 431.30
  L 326.01 432.79
  Q 326.14 433.34 326.70 433.40
  Q 327.18 433.45 327.14 433.94
  Q 327.09 434.43 326.76 434.81
  Q 326.55 435.06 326.58 435.32"
/>
<path stroke="#ec0000" vector-effect="non-scaling-stroke" d="
  M 321.48 439.06
  Q 319.71 440.26 318.23 441.42
  Q 316.44 442.84 314.79 443.54
  Q 310.90 445.18 305.35 445.58
  Q 296.38 446.21 287.11 447.33
  Q 284.70 447.62 282.41 447.70
  C 278.46 447.84 274.41 448.58 270.66 449.56
  Q 267.70 450.34 270.38 451.81
  Q 272.38 452.90 273.98 454.42
  A 0.78 0.78 0.0 0 1 273.85 455.65
  Q 273.28 456.01 273.08 456.64
  Q 272.91 457.15 272.38 457.15
  Q 270.16 457.17 267.95 457.14
  Q 265.76 457.11 263.75 457.52
  C 261.45 458.00 259.40 457.05 257.12 456.89
  C 252.51 456.58 247.94 456.08 243.32 456.53
  Q 238.46 456.99 233.80 457.62
  Q 231.25 457.96 228.66 458.68
  C 222.90 460.30 217.63 457.11 212.15 458.82
  Q 207.95 460.14 203.15 460.32
  Q 201.21 460.40 200.52 458.46
  A 2.96 2.93 -2.8 0 0 198.45 456.60
  Q 192.57 455.15 186.55 453.73
  C 185.99 453.59 185.65 453.22 185.12 453.05
  Q 179.93 451.37 175.11 448.85
  C 173.67 448.10 172.97 446.66 171.53 445.96
  Q 171.07 445.73 170.86 445.25
  Q 170.32 444.02 170.76 442.92
  A 0.95 0.93 7.9 0 1 171.56 442.33
  L 176.23 442.00"
/>
<path stroke="#800000" vector-effect="non-scaling-stroke" d="
  M 176.23 442.00
  Q 183.96 443.53 192.00 442.94
  Q 198.88 442.45 203.46 443.09
  C 208.39 443.78 213.11 445.49 218.29 444.90
  Q 219.63 444.75 220.19 443.54
  A 1.11 1.10 24.1 0 0 219.62 442.06
  C 215.64 440.35 211.81 440.03 207.45 440.02
  Q 199.29 440.00 189.76 439.39
  Q 182.41 438.93 175.54 441.31"
/>
<path stroke="#ec0000" vector-effect="non-scaling-stroke" d="
  M 175.54 441.31
  Q 171.45 439.98 169.77 441.21
  Q 167.95 442.53 166.23 441.07
  Q 165.46 440.42 164.52 440.13
  Q 162.40 439.49 160.88 438.21"
/>
<path stroke="#ec0000" vector-effect="non-scaling-stroke" d="
  M 116.18 410.84
  Q 118.10 411.12 119.22 412.51
  Q 119.53 412.89 120.02 412.99
  C 121.84 413.33 123.52 412.93 125.28 412.98
  Q 126.58 413.02 127.74 412.69
  Q 130.45 411.91 133.24 411.49
  Q 134.97 411.23 136.20 410.56
  Q 138.02 409.58 140.01 409.11
  Q 148.80 407.04 154.35 406.72
  Q 156.35 406.61 158.54 406.22
  Q 162.57 405.49 163.46 405.43
  C 165.42 405.31 170.71 405.25 169.21 401.55
  Q 168.85 400.65 168.00 400.28
  Q 164.91 398.94 162.16 399.54
  Q 159.11 400.20 157.39 397.89
  Q 156.56 396.78 157.04 394.26
  Q 157.08 394.02 157.22 394.22
  Q 157.30 394.34 157.47 394.27
  Q 157.74 394.16 157.60 393.91
  Q 156.93 392.67 155.60 392.67
  Q 148.44 392.68 141.47 392.37
  Q 135.48 392.10 125.13 390.25
  C 120.93 389.50 116.75 389.57 112.52 389.63
  Q 112.38 389.63 112.28 389.53
  Q 112.19 389.43 112.08 389.35
  Q 112.04 389.33 112.01 389.33
  L 108.16 389.36
  Q 107.53 389.37 107.01 389.03
  Q 106.51 388.71 106.00 388.95
  Q 105.52 389.18 105.01 389.11
  L 102.22 388.78
  Q 101.72 388.73 101.53 389.18
  Q 100.96 390.48 99.76 391.16"
/>
<path stroke="#6c0000" vector-effect="non-scaling-stroke" d="
  M 175.54 441.31
  Q 175.10 441.06 174.84 441.13
  Q 174.00 441.36 174.96 441.76
  Q 175.43 441.96 176.23 442.00"
/>
<path stroke="#ec0000" vector-effect="non-scaling-stroke" d="
  M 286.93 470.14
  Q 286.48 467.99 283.73 468.81
  Q 281.88 469.37 280.69 469.37
  Q 278.50 469.37 276.31 469.53
  Q 274.79 469.63 273.32 470.18
  Q 271.88 470.71 270.31 470.68
  Q 266.10 470.61 261.35 470.90
  Q 258.15 471.09 254.46 470.59
  Q 252.56 470.33 250.72 471.08
  Q 248.90 471.83 250.72 472.57
  Q 254.35 474.03 258.88 475.29
  Q 261.56 476.03 264.15 475.84
  C 266.21 475.69 268.46 475.40 270.57 475.55
  Q 271.07 475.59 271.53 475.40
  Q 272.42 475.06 273.21 475.42
  Q 273.40 475.50 273.60 475.48
  Q 275.26 475.25 276.33 476.44
  Q 277.28 477.49 278.23 478.63
  Q 278.52 478.98 278.16 479.25
  C 277.19 479.97 276.30 480.68 275.02 480.50
  Q 267.01 479.38 259.52 479.42
  Q 253.94 479.46 250.05 476.01
  C 249.43 475.46 248.44 474.92 247.59 474.88
  Q 235.89 474.36 224.73 472.63
  A 1.65 1.64 83.2 0 0 222.97 474.88
  Q 223.55 476.28 222.60 477.44
  C 220.99 479.41 218.04 480.77 215.89 482.12
  C 213.47 483.64 213.71 486.79 210.42 487.40
  Q 209.86 487.51 209.72 486.96
  L 209.54 486.25
  Q 209.41 485.73 209.02 485.38
  Q 207.72 484.20 205.72 484.93"
/>
<path stroke="#ec0000" vector-effect="non-scaling-stroke" d="
  M 301.72 480.01
  Q 303.07 481.76 299.66 481.50
  Q 298.53 481.41 297.38 481.03
  Q 294.64 480.10 291.51 480.73
  Q 288.29 481.38 284.94 481.64
  Q 281.69 481.90 278.95 483.82
  A 0.80 0.79 -43.0 0 0 278.90 485.09
  C 282.57 488.11 286.46 489.53 291.33 489.73
  Q 296.71 489.94 298.58 489.85
  Q 306.83 489.46 313.63 490.27
  Q 314.45 490.36 315.28 490.60
  Q 316.40 490.93 317.69 490.90
  Q 324.01 490.79 329.34 489.49
  Q 329.50 489.45 329.57 489.30
  Q 329.59 489.24 329.64 489.20
  Q 329.76 489.08 329.94 489.09
  Q 331.64 489.17 332.68 488.18
  Q 332.98 487.91 333.37 487.80
  Q 337.81 486.63 341.99 487.65
  Q 344.95 488.36 347.71 487.28
  Q 348.25 487.06 348.20 486.48
  Q 348.09 485.33 347.62 484.33
  Q 347.31 483.67 348.04 483.60
  L 349.53 483.45"
/>
<path stroke="#ec0000" vector-effect="non-scaling-stroke" d="
  M 303.90 521.27
  L 302.53 520.67
  Q 301.91 520.40 302.31 519.85
  Q 302.54 519.54 302.34 519.26
  Q 302.08 518.88 301.62 518.85
  C 297.86 518.57 294.27 518.22 290.57 518.47
  C 287.35 518.70 284.10 518.42 280.82 518.68
  Q 269.78 519.57 260.56 520.65
  Q 250.76 521.80 243.89 525.74
  C 241.81 526.94 239.12 526.84 237.12 525.67
  C 232.46 522.93 222.73 524.66 218.07 526.16
  C 217.00 526.50 215.85 526.31 214.75 526.57
  A 0.66 0.66 0.0 0 1 213.94 525.93
  C 213.91 522.61 209.74 521.25 206.49 520.32
  A 0.73 0.68 -46.7 0 0 205.99 520.35
  Q 205.53 520.54 205.44 520.11
  A 0.56 0.56 0.0 0 0 204.95 519.68
  L 203.96 519.56
  Q 203.36 519.49 203.34 518.88
  Q 203.30 516.74 205.24 516.13
  C 211.30 514.22 217.53 512.91 223.45 509.88
  Q 223.89 509.65 224.17 509.24
  Q 226.22 506.23 230.26 506.26"
/>
<path stroke="#800000" vector-effect="non-scaling-stroke" d="
  M 230.26 506.26
  Q 240.44 506.88 250.76 507.36
  Q 255.10 507.56 257.90 507.22
  C 262.08 506.70 265.79 503.44 270.29 503.48
  Q 280.90 503.58 291.46 503.30
  Q 292.53 503.28 293.25 502.63
  Q 294.21 501.77 292.98 501.39
  Q 289.69 500.38 286.74 500.07
  Q 278.13 499.15 270.11 498.12
  Q 264.47 497.41 259.73 498.24
  Q 253.64 499.32 247.70 500.10
  C 243.96 500.60 240.59 502.08 236.71 502.62
  Q 233.36 503.08 230.26 503.94"
/>
<path stroke="#ec0000" vector-effect="non-scaling-stroke" d="
  M 230.26 503.94
  L 229.03 504.65
  Q 228.55 504.93 227.98 504.92
  Q 224.12 504.82 220.58 506.23
  Q 217.68 507.39 214.29 507.91
  Q 210.97 508.42 207.83 508.72
  Q 207.27 508.78 206.71 508.74
  Q 206.05 508.71 205.63 509.24
  C 204.81 510.31 204.06 511.02 203.88 512.42
  Q 203.81 512.94 203.31 513.05
  Q 201.21 513.53 199.31 514.17
  Q 198.76 514.36 198.14 514.38
  Q 197.43 514.40 196.88 514.84
  Q 196.49 515.15 195.99 515.11
  C 192.51 514.80 188.27 515.34 184.91 514.40
  Q 183.20 513.91 181.36 513.59
  Q 180.86 513.50 180.55 513.10
  Q 180.23 512.69 179.87 513.05
  A 0.52 0.50 -54.5 0 1 179.29 513.16
  Q 178.46 512.78 177.85 513.34
  Q 177.48 513.66 176.99 513.61
  Q 175.25 513.41 173.49 513.12
  Q 171.85 512.86 171.14 511.50
  Q 170.92 511.09 170.45 511.09
  L 158.90 511.28
  Q 158.44 511.29 158.03 511.06
  C 156.61 510.25 155.47 510.91 154.01 510.88
  C 151.19 510.82 148.05 510.57 145.43 511.67
  Q 144.36 512.12 143.24 511.80
  Q 142.60 511.62 141.95 511.81
  L 137.49 513.07"
/>
<path stroke="#ec0000" vector-effect="non-scaling-stroke" d="
  M 279.15 570.83
  Q 277.17 571.15 274.99 571.00
  C 271.65 570.79 270.46 575.44 267.10 574.48
  A 1.56 1.53 -45.6 0 0 266.16 574.50
  Q 264.50 575.07 262.87 575.32
  C 260.53 575.68 258.67 574.35 256.35 574.55
  Q 248.29 575.25 238.88 575.50
  Q 238.45 575.51 238.45 575.09
  L 238.45 574.82
  Q 238.45 574.15 239.11 574.09
  Q 247.94 573.32 254.27 570.07
  Q 259.07 567.62 263.54 566.15
  C 268.43 564.54 273.91 564.58 279.06 563.80
  Q 280.99 563.50 282.31 561.30
  A 0.49 0.47 22.3 0 1 282.83 561.09
  Q 283.00 561.14 283.17 561.14
  Q 283.56 561.13 283.18 561.08
  Q 283.04 561.06 282.94 560.93
  Q 282.78 560.73 282.92 560.51
  Q 284.09 558.71 282.40 557.13
  A 1.08 1.06 64.4 0 0 281.60 556.84
  Q 273.78 557.35 266.57 556.49
  C 261.53 555.90 257.12 556.58 252.32 557.17
  Q 251.66 557.25 251.22 556.76
  Q 250.72 556.23 250.32 555.64
  Q 249.77 554.84 248.94 554.39
  Q 247.42 553.56 245.39 553.91
  Q 241.61 554.57 236.75 552.64
  Q 234.91 551.90 227.71 551.59"
/>
<path stroke="#6c0000" vector-effect="non-scaling-stroke" d="
  M 230.26 506.26
  Q 229.09 505.93 229.41 505.28
  Q 229.68 504.74 230.26 503.94"
/>
<path stroke="#ec0000" vector-effect="non-scaling-stroke" d="
  M 267.21 580.11
  Q 264.57 580.02 261.96 579.63
  Q 258.70 579.13 256.74 579.14
  C 253.67 579.14 250.57 579.47 247.50 579.09
  Q 245.33 578.83 242.99 579.08
  C 241.06 579.29 239.02 578.99 237.12 578.87
  Q 236.42 578.82 232.96 579.23
  Q 231.05 579.46 229.11 579.21
  Q 224.48 578.61 219.91 577.77
  C 216.15 577.08 212.51 577.45 208.72 577.66
  Q 208.16 577.69 207.88 578.18
  Q 207.13 579.51 208.21 580.94
  Q 208.68 581.55 208.60 582.25
  A 0.72 0.72 0.0 0 1 207.59 582.84
  Q 205.22 581.82 202.34 582.06"
/>
<path stroke="#6c0000" vector-effect="non-scaling-stroke" d="
  M 370.1803 430.8620
  A 1.27 1.27 0.0 0 0 368.9147 429.5876
  L 364.5547 429.5724
  A 1.27 1.27 0.0 0 0 363.2803 430.8380
  L 363.2797 430.9980
  A 1.27 1.27 0.0 0 0 364.5453 432.2724
  L 368.9053 432.2876
  A 1.27 1.27 0.0 0 0 370.1797 431.0220
  L 370.1803 430.8620"
/>
<path stroke="#6c0000" vector-effect="non-scaling-stroke" d="
  M 135.68 447.91
  L 135.66 445.35
  A 0.54 0.54 0.0 0 0 135.12 444.82
  L 133.96 444.82
  A 20.62 1.21 -0.4 0 0 113.35 446.18
  L 113.35 447.40
  A 20.62 1.21 -0.4 0 0 133.98 448.46
  L 135.14 448.46
  A 0.54 0.54 0.0 0 0 135.68 447.91"
/>
<path stroke="#6c0000" vector-effect="non-scaling-stroke" d="
  M 128.6211 455.0287
  A 5.08 1.73 -3.4 0 0 123.4474 453.6030
  A 5.08 1.73 -3.4 0 0 118.4789 455.6313
  A 5.08 1.73 -3.4 0 0 123.6526 457.0570
  A 5.08 1.73 -3.4 0 0 128.6211 455.0287"
/>
<path stroke="#6c0000" vector-effect="non-scaling-stroke" d="
  M 354.8348 461.5547
  A 1.98 1.98 0.0 0 0 352.8037 459.6272
  L 338.7885 459.9942
  A 1.98 1.98 0.0 0 0 336.8610 462.0254
  L 336.8652 462.1853
  A 1.98 1.98 0.0 0 0 338.8963 464.1128
  L 352.9115 463.7458
  A 1.98 1.98 0.0 0 0 354.8390 461.7146
  L 354.8348 461.5547"
/>
<path stroke="#800000" vector-effect="non-scaling-stroke" d="
  M 126.90 471.07
  Q 125.32 471.54 125.19 472.90
  A 0.87 0.84 18.5 0 0 125.61 473.71
  Q 127.93 475.11 130.60 474.97
  C 138.28 474.57 146.27 475.10 154.01 473.77
  Q 154.67 473.66 154.95 473.06
  Q 155.35 472.22 154.92 471.19
  Q 154.67 470.63 154.08 470.47
  Q 152.73 470.12 151.37 470.04
  Q 142.75 469.48 133.06 470.00
  Q 129.94 470.17 126.90 471.07"
/>
<path stroke="#800000" vector-effect="non-scaling-stroke" d="
  M 324.72 475.96
  C 327.97 480.85 335.71 479.09 340.36 478.31
  C 346.27 477.31 352.25 478.37 358.47 479.63
  Q 360.68 480.08 362.63 479.53
  A 1.40 1.39 59.8 0 0 363.24 477.21
  C 361.00 474.92 355.22 475.16 352.31 475.50
  Q 345.73 476.27 339.09 475.85
  C 334.41 475.55 330.42 473.60 325.76 473.87
  A 1.35 1.34 71.6 0 0 324.72 475.96"
/>
<path stroke="#6c0000" vector-effect="non-scaling-stroke" d="
  M 156.07 487.79
  L 156.22 485.49
  A 0.76 0.76 0.0 0 0 155.51 484.69
  L 153.23 484.54
  A 19.27 1.43 3.7 0 0 133.90 484.72
  L 133.84 485.68
  A 19.27 1.43 3.7 0 0 152.98 488.35
  L 155.27 488.50
  A 0.76 0.76 0.0 0 0 156.07 487.79"
/>
<path stroke="#6c0000" vector-effect="non-scaling-stroke" d="
  M 128.3367 493.6393
  A 4.93 1.11 -2.1 0 0 123.3693 492.7107
  A 4.93 1.11 -2.1 0 0 118.4833 494.0007
  A 4.93 1.11 -2.1 0 0 123.4507 494.9293
  A 4.93 1.11 -2.1 0 0 128.3367 493.6393"
/>
<path stroke="#800000" vector-effect="non-scaling-stroke" d="
  M 121.24 507.26
  L 121.36 504.29
  A 1.23 1.23 0.0 0 0 120.18 503.01
  L 111.04 502.64
  A 10.28 2.41 2.3 0 0 100.67 504.64
  L 100.65 505.26
  A 10.28 2.41 2.3 0 0 110.82 508.08
  L 119.96 508.44
  A 1.23 1.23 0.0 0 0 121.24 507.26"
/>
<path stroke="#6c0000" vector-effect="non-scaling-stroke" d="
  M 251.4981 598.6503
  A 2.14 1.28 132.0 0 0 253.8812 597.9165
  A 2.14 1.28 132.0 0 0 254.3619 595.4697
  A 2.14 1.28 132.0 0 0 251.9788 596.2035
  A 2.14 1.28 132.0 0 0 251.4981 598.6503"
/>
<path stroke="#800000" vector-effect="non-scaling-stroke" d="
  M 251.7647 612.4518
  A 4.35 3.56 97.6 0 0 255.8687 608.6108
  A 4.35 3.56 97.6 0 0 252.9153 603.8282
  A 4.35 3.56 97.6 0 0 248.8113 607.6692
  A 4.35 3.56 97.6 0 0 251.7647 612.4518"
/>
<path stroke="#6c0000" vector-effect="non-scaling-stroke" d="
  M 212.18 630.51
  A 1.22 1.22 0.0 0 0 210.96 629.29
  A 1.22 1.22 0.0 0 0 209.74 630.51
  A 1.22 1.22 0.0 0 0 210.96 631.73
  A 1.22 1.22 0.0 0 0 212.18 630.51"
/>
<path stroke="#6c0000" vector-effect="non-scaling-stroke" d="
  M 212.69 638.51
  A 1.89 1.89 0.0 0 0 210.80 636.62
  A 1.89 1.89 0.0 0 0 208.91 638.51
  A 1.89 1.89 0.0 0 0 210.80 640.40
  A 1.89 1.89 0.0 0 0 212.69 638.51"
/>
<path stroke="#800000" vector-effect="non-scaling-stroke" d="
  M 210.41 652.15
  Q 210.41 650.25 210.93 648.23
  Q 211.13 647.48 210.83 646.80
  Q 210.72 646.56 210.51 646.41
  A 0.63 0.62 -60.4 0 0 209.58 646.67
  Q 207.06 652.50 205.81 657.57
  C 205.05 660.67 207.33 664.06 210.77 663.45
  C 215.44 662.63 215.08 655.17 214.28 651.77
  A 1.31 1.31 0.0 0 0 211.95 651.29
  L 211.14 652.39
  A 0.40 0.40 0.0 0 1 210.41 652.15"
/>
<path stroke="#800000" vector-effect="non-scaling-stroke" d="
  M 306.7542 385.7177
  A 1.30 1.30 0.0 0 0 305.6710 384.2322
  L 288.2236 381.5000
  A 1.30 1.30 0.0 0 0 286.7382 382.5833
  L 286.7258 382.6623
  A 1.30 1.30 0.0 0 0 287.8090 384.1478
  L 305.2564 386.8800
  A 1.30 1.30 0.0 0 0 306.7418 385.7967
  L 306.7542 385.7177"
/>
<path stroke="#800000" vector-effect="non-scaling-stroke" d="
  M 226.82 401.28
  Q 222.73 400.29 217.79 398.80
  C 213.23 397.43 208.16 399.17 203.69 397.34
  C 198.21 395.10 194.12 394.55 188.29 396.36
  C 183.32 397.91 178.00 397.51 172.94 397.60
  Q 171.92 397.62 171.24 398.28
  A 0.60 0.60 0.0 0 0 171.50 399.29
  C 178.52 401.28 185.42 401.23 192.66 401.62
  C 196.33 401.83 199.33 403.05 202.72 404.16
  A 8.56 8.49 46.4 0 0 207.57 404.30
  C 210.88 403.42 214.55 401.92 217.90 402.32
  C 220.34 402.62 226.10 403.79 228.33 402.71
  Q 230.75 401.52 228.05 401.44
  Q 227.40 401.42 226.82 401.28"
/>
<path stroke="#800000" vector-effect="non-scaling-stroke" d="
  M 272.19 410.21
  Q 273.46 410.64 273.53 411.45
  Q 273.58 412.05 274.17 412.17
  C 277.67 412.85 281.71 412.47 285.28 412.25
  C 289.17 412.01 292.87 413.07 296.61 413.60
  Q 299.86 414.05 303.91 413.77
  C 308.41 413.46 313.09 414.04 317.69 414.45
  Q 321.42 414.78 324.54 413.99
  Q 327.85 413.15 324.47 412.71
  Q 319.73 412.09 316.20 410.92
  C 311.25 409.29 306.96 408.91 301.92 409.35
  C 296.72 409.80 291.31 408.35 286.33 406.79
  C 282.77 405.67 279.16 405.58 275.48 406.19
  Q 268.10 407.42 261.67 408.27
  Q 260.58 408.42 259.88 409.29
  Q 259.52 409.75 260.09 409.91
  C 263.68 410.93 267.73 410.50 271.57 410.14
  A 1.54 1.48 -37.4 0 1 272.19 410.21"
/>
<path stroke="#ec0000" vector-effect="non-scaling-stroke" d="
  M 244.30 417.16
  Q 232.03 417.23 222.34 417.91
  Q 218.99 418.15 215.14 419.78
  Q 214.90 419.88 215.00 420.13
  L 215.14 420.48
  Q 215.18 420.58 215.29 420.55
  Q 219.30 419.14 223.11 418.87
  C 226.65 418.62 229.78 419.92 233.38 419.56
  Q 239.84 418.90 245.65 417.43
  Q 246.29 417.27 245.72 416.94
  Q 245.30 416.70 244.94 416.96
  Q 244.65 417.16 244.30 417.16"
/>
<path stroke="#ec0000" vector-effect="non-scaling-stroke" d="
  M 234.7547 425.2478
  A 0.56 0.56 0.0 0 0 234.1375 424.7515
  L 223.9772 425.8553
  A 0.56 0.56 0.0 0 0 223.4810 426.4725
  L 223.4853 426.5122
  A 0.56 0.56 0.0 0 0 224.1025 427.0085
  L 234.2628 425.9047
  A 0.56 0.56 0.0 0 0 234.7590 425.2875
  L 234.7547 425.2478"
/>
<path stroke="#ec0000" vector-effect="non-scaling-stroke" d="
  M 244.27 428.75
  Q 238.81 430.37 227.78 430.68
  Q 227.07 430.70 226.55 431.10
  Q 225.62 431.84 226.80 431.92
  C 231.62 432.23 236.04 432.46 240.99 431.83
  Q 245.81 431.22 250.64 430.62
  Q 252.63 430.37 254.39 430.40
  C 256.43 430.44 258.52 430.84 260.53 430.15
  Q 263.53 429.12 260.47 428.31
  C 256.38 427.21 251.47 427.70 247.27 428.14
  Q 245.78 428.30 244.27 428.75"
/>
<path stroke="#ec0000" vector-effect="non-scaling-stroke" d="
  M 224.16 443.91
  C 226.24 444.41 230.09 444.69 229.76 447.72
  A 1.14 1.14 0.0 0 0 231.03 448.97
  C 234.48 448.58 237.80 448.11 241.26 448.22
  Q 250.95 448.55 259.61 447.93
  Q 261.41 447.80 263.11 447.01
  A 0.59 0.59 0.0 0 0 263.13 445.96
  Q 262.31 445.52 261.36 445.51
  Q 248.54 445.39 235.56 444.76
  Q 232.83 444.63 230.13 443.81
  Q 227.45 443.00 224.30 442.87
  Q 218.97 442.64 224.16 443.91"
/>
</g>
<path fill="#000000" d="
  M 0.00 0.00
  L 474.00 0.00
  L 474.00 842.00
  L 0.00 842.00
  L 0.00 0.00
  Z
  M 118.62 266.00
  Q 113.09 274.41 107.96 285.18
  Q 93.14 316.30 91.27 350.24
  Q 91.08 353.64 91.30 354.52
  C 92.23 358.24 98.04 358.02 102.00 358.06
  Q 103.04 358.07 105.99 358.91
  Q 106.48 359.04 106.74 359.44
  Q 107.12 360.02 106.69 360.54
  Q 106.39 360.90 105.89 361.02
  C 101.22 362.15 96.56 361.96 92.02 362.97
  Q 88.73 363.70 89.17 366.99
  Q 89.24 367.50 89.67 367.78
  Q 91.85 369.22 94.37 369.74
  Q 105.30 372.02 118.33 373.64
  C 120.73 373.93 123.51 374.74 125.48 376.27
  A 2.21 2.21 0.0 0 1 125.77 379.50
  Q 124.42 380.99 122.37 381.73
  Q 115.16 384.34 108.36 384.82
  C 104.78 385.07 101.47 386.01 98.66 388.32
  A 1.11 1.10 48.3 0 0 98.57 389.95
  L 99.76 391.16
  Q 104.01 394.49 110.76 395.46
  Q 114.55 396.01 124.01 398.23
  Q 125.55 398.59 128.54 400.77
  C 133.45 404.34 127.43 407.63 124.48 408.42
  Q 120.35 409.52 116.18 410.84
  Q 107.58 411.58 102.62 412.62
  Q 101.01 412.97 98.87 414.51
  Q 98.44 414.82 98.26 415.33
  Q 97.23 418.33 100.80 419.69
  Q 106.87 422.01 115.38 422.81
  Q 132.72 424.42 148.71 426.67
  Q 156.40 427.76 163.49 430.74
  Q 165.81 431.71 167.21 433.43
  A 2.03 2.03 0.0 0 1 166.20 436.65
  L 160.88 438.21
  Q 154.42 438.78 147.26 440.29
  Q 145.10 440.75 143.52 442.08
  A 1.80 1.80 0.0 0 0 143.22 444.52
  C 145.10 447.10 149.82 448.07 152.72 448.68
  Q 160.79 450.37 168.53 451.68
  Q 169.91 451.91 171.19 452.89
  Q 171.67 453.25 171.27 453.69
  Q 169.42 455.72 166.96 456.58
  A 1.44 1.44 0.0 0 0 166.74 459.20
  Q 171.15 461.66 176.97 462.10
  Q 180.45 462.36 182.00 462.69
  C 183.91 463.08 188.02 463.40 189.10 465.19
  A 1.30 1.29 60.0 0 1 188.62 466.99
  Q 186.83 467.98 184.74 467.95
  Q 177.27 467.83 170.83 468.55
  Q 169.44 468.71 168.30 469.28
  C 165.76 470.56 163.95 473.80 167.98 475.05
  Q 172.96 476.59 176.68 477.67
  Q 180.07 478.65 185.57 479.55
  Q 196.10 481.28 205.72 484.93
  Q 210.19 490.83 205.00 492.46
  Q 197.35 494.88 191.61 495.38
  C 185.35 495.94 178.86 496.82 172.70 496.89
  C 166.16 496.97 159.60 496.70 153.02 497.83
  Q 144.93 499.21 137.12 500.49
  Q 132.47 501.25 129.65 503.39
  C 124.12 507.59 134.07 512.24 137.49 513.07
  Q 147.13 516.10 151.76 516.94
  Q 163.36 519.04 183.72 521.41
  C 189.70 522.10 195.74 523.45 201.48 525.15
  Q 204.66 526.09 206.97 528.54
  A 1.33 1.33 0.0 0 1 206.55 530.66
  Q 202.79 532.35 199.09 533.32
  Q 196.49 534.00 193.76 535.82
  C 192.21 536.85 192.53 539.16 193.88 540.13
  Q 196.54 542.03 200.50 542.92
  Q 208.66 544.77 217.29 546.40
  Q 222.37 547.37 227.71 551.59
  Q 228.74 553.39 228.66 556.01
  Q 228.56 559.32 225.77 559.80
  C 215.69 561.56 205.32 562.42 195.27 563.41
  C 190.93 563.84 186.33 564.95 181.97 565.88
  Q 178.57 566.62 179.38 569.99
  Q 181.36 578.17 180.57 587.18
  Q 180.37 589.52 181.00 591.95
  C 181.70 594.62 184.29 595.48 186.60 594.13
  C 190.06 592.12 187.16 583.67 186.36 580.68
  Q 185.79 578.54 187.37 576.70
  C 189.93 573.71 192.26 575.46 194.51 577.45
  Q 198.07 580.60 202.34 582.06
  C 204.69 582.95 207.94 582.98 208.99 585.56
  Q 210.69 589.72 210.69 594.75
  Q 210.69 603.11 209.39 609.94
  C 208.80 613.07 208.74 616.25 208.71 619.44
  C 208.67 623.88 213.59 623.46 214.66 619.95
  Q 215.63 616.77 216.43 613.49
  C 217.37 609.64 222.54 609.14 223.23 613.51
  Q 223.98 618.24 223.72 623.00
  C 223.20 632.58 222.73 642.06 222.58 651.59
  Q 222.53 655.19 222.28 659.19
  Q 221.84 666.34 221.74 684.75
  Q 221.72 688.68 224.19 691.49
  C 226.75 694.39 230.98 691.78 232.07 688.98
  Q 233.55 685.17 233.53 680.23
  Q 233.48 666.81 233.04 656.80
  Q 232.35 640.87 231.57 625.09
  C 231.24 618.34 231.21 610.71 232.17 603.84
  Q 232.92 598.40 234.15 593.49
  Q 235.24 589.15 237.80 585.38
  C 239.36 583.09 242.82 582.77 245.33 583.84
  Q 250.28 585.95 255.44 587.65
  Q 255.85 587.79 256.18 587.51
  C 259.63 584.62 262.34 580.99 267.21 580.11
  Q 271.48 579.76 275.76 579.45
  C 280.47 579.11 278.90 573.91 279.15 570.83
  Q 284.78 567.66 286.98 567.21
  C 291.32 566.31 299.60 564.02 300.36 558.73
  Q 301.07 553.87 295.46 552.42
  C 291.75 551.46 286.60 550.49 283.69 547.92
  A 1.11 1.10 -58.2 0 1 283.40 546.67
  Q 284.04 545.11 285.92 545.06
  Q 290.79 544.92 295.47 544.59
  Q 299.26 544.32 301.06 542.64
  C 303.06 540.76 304.95 538.77 307.73 537.98
  Q 313.13 536.45 319.19 535.14
  Q 320.51 534.85 320.99 533.78
  A 1.20 1.20 0.0 0 0 320.48 532.25
  C 316.47 530.03 312.81 528.55 307.99 527.56
  Q 302.93 526.52 297.89 525.33
  Q 296.36 524.97 296.03 524.12
  Q 295.58 522.95 296.81 522.70
  L 303.90 521.27
  Q 309.85 518.98 316.08 517.08
  C 320.06 515.86 323.65 516.01 327.20 513.43
  A 0.64 0.63 37.0 0 0 327.04 512.32
  C 324.36 511.36 320.49 510.25 320.00 506.92
  A 1.49 1.49 0.0 0 1 321.56 505.22
  C 325.71 505.46 329.04 505.40 332.84 503.23
  Q 336.16 501.34 339.26 499.68
  A 0.67 0.67 0.0 0 0 339.37 498.56
  Q 338.73 498.06 337.99 498.07
  Q 335.47 498.13 332.89 497.88
  Q 330.75 497.67 332.24 496.11
  C 333.99 494.31 338.93 494.36 341.56 494.22
  C 345.14 494.03 347.09 492.40 350.10 491.08
  C 352.42 490.06 354.93 489.72 357.37 489.14
  A 1.36 1.36 0.0 0 0 358.41 487.72
  C 358.23 484.93 351.66 483.63 349.53 483.45
  Q 342.68 482.19 337.73 483.40
  Q 330.06 485.27 323.28 483.99
  Q 316.81 482.76 315.89 482.65
  Q 308.77 481.77 301.72 480.01
  Q 295.50 478.42 289.32 476.41
  Q 287.79 475.91 286.40 475.02
  Q 285.97 474.75 285.85 474.26
  Q 285.34 472.20 286.93 470.14
  Q 289.63 467.97 294.76 467.82
  Q 304.48 467.54 309.74 467.53
  C 314.73 467.52 318.35 466.98 322.47 465.31
  Q 324.74 464.39 323.84 462.13
  A 1.86 1.85 85.6 0 0 322.54 461.01
  C 319.88 460.36 314.30 459.73 312.45 457.67
  A 1.64 1.63 -44.6 0 1 312.47 455.46
  C 315.30 452.41 322.59 451.65 326.45 451.43
  C 332.76 451.06 338.73 450.40 343.80 446.76
  A 1.53 1.53 0.0 0 0 343.89 444.34
  Q 342.05 442.79 339.78 441.97
  Q 335.76 440.52 330.74 440.17
  Q 325.42 439.80 321.48 439.06
  Q 319.48 437.87 320.59 436.84
  Q 322.66 434.94 326.58 435.32
  Q 336.04 436.84 339.25 436.04
  C 342.67 435.20 346.09 434.27 349.64 433.92
  Q 354.60 433.44 358.88 431.59
  A 1.42 1.42 0.0 0 0 359.32 429.28
  L 358.49 428.46
  A 1.35 1.34 60.8 0 1 359.13 426.19
  C 363.74 425.13 369.31 424.04 372.65 420.63
  C 373.98 419.28 372.95 417.47 371.18 417.37
  C 369.84 417.29 368.27 416.96 367.04 416.46
  Q 358.68 413.05 349.98 410.77
  L 347.77 410.03
  A 1.24 1.23 20.3 0 1 347.01 408.39
  Q 347.72 406.61 349.59 406.35
  C 353.08 405.86 356.63 405.85 359.97 404.58
  C 362.39 403.66 363.64 400.94 366.11 399.65
  Q 367.77 398.79 369.66 398.61
  C 373.03 398.30 377.36 397.74 380.02 396.00
  A 0.98 0.96 76.8 0 0 380.45 395.29
  Q 380.65 393.53 378.93 393.25
  Q 373.45 392.38 367.04 390.34
  Q 366.53 390.18 366.40 389.66
  A 0.89 0.88 78.4 0 1 367.11 388.58
  Q 371.68 387.83 374.92 385.26
  C 377.47 383.24 380.68 382.57 383.66 381.38
  Q 385.26 380.75 386.09 379.33
  Q 386.38 378.83 385.83 378.65
  Q 380.67 376.92 377.21 376.51
  Q 366.97 375.30 357.39 373.27
  A 0.73 0.73 0.0 0 1 356.87 372.26
  Q 357.14 371.67 357.76 371.50
  Q 364.51 369.70 372.38 368.10
  Q 377.68 367.02 382.03 365.06
  Q 383.29 364.49 382.39 363.10
  A 1.78 1.77 87.1 0 0 381.70 362.47
  Q 378.31 360.67 374.61 359.77
  Q 366.75 357.87 358.63 355.89
  Q 358.09 355.75 358.18 355.22
  A 0.73 0.73 0.0 0 1 358.82 354.63
  Q 368.50 353.63 371.08 353.78
  Q 375.28 354.02 379.39 353.90
  C 383.63 353.79 383.89 350.55 383.94 347.24
  C 384.40 318.45 376.33 290.01 359.72 266.38
  C 343.83 243.71 321.48 226.85 295.99 216.09
  Q 281.03 209.79 261.47 205.88
  C 256.37 204.86 251.23 204.67 246.02 204.02
  C 237.26 202.94 228.24 203.86 219.56 204.78
  Q 157.73 211.30 121.61 261.34
  Q 120.11 263.43 118.62 266.00
  Z
  M 370.1803 430.8620
  A 1.27 1.27 0.0 0 0 368.9147 429.5876
  L 364.5547 429.5724
  A 1.27 1.27 0.0 0 0 363.2803 430.8380
  L 363.2797 430.9980
  A 1.27 1.27 0.0 0 0 364.5453 432.2724
  L 368.9053 432.2876
  A 1.27 1.27 0.0 0 0 370.1797 431.0220
  L 370.1803 430.8620
  Z
  M 135.68 447.91
  L 135.66 445.35
  A 0.54 0.54 0.0 0 0 135.12 444.82
  L 133.96 444.82
  A 20.62 1.21 -0.4 0 0 113.35 446.18
  L 113.35 447.40
  A 20.62 1.21 -0.4 0 0 133.98 448.46
  L 135.14 448.46
  A 0.54 0.54 0.0 0 0 135.68 447.91
  Z
  M 128.6211 455.0287
  A 5.08 1.73 -3.4 0 0 123.4474 453.6030
  A 5.08 1.73 -3.4 0 0 118.4789 455.6313
  A 5.08 1.73 -3.4 0 0 123.6526 457.0570
  A 5.08 1.73 -3.4 0 0 128.6211 455.0287
  Z
  M 354.8348 461.5547
  A 1.98 1.98 0.0 0 0 352.8037 459.6272
  L 338.7885 459.9942
  A 1.98 1.98 0.0 0 0 336.8610 462.0254
  L 336.8652 462.1853
  A 1.98 1.98 0.0 0 0 338.8963 464.1128
  L 352.9115 463.7458
  A 1.98 1.98 0.0 0 0 354.8390 461.7146
  L 354.8348 461.5547
  Z
  M 126.90 471.07
  Q 125.32 471.54 125.19 472.90
  A 0.87 0.84 18.5 0 0 125.61 473.71
  Q 127.93 475.11 130.60 474.97
  C 138.28 474.57 146.27 475.10 154.01 473.77
  Q 154.67 473.66 154.95 473.06
  Q 155.35 472.22 154.92 471.19
  Q 154.67 470.63 154.08 470.47
  Q 152.73 470.12 151.37 470.04
  Q 142.75 469.48 133.06 470.00
  Q 129.94 470.17 126.90 471.07
  Z
  M 324.72 475.96
  C 327.97 480.85 335.71 479.09 340.36 478.31
  C 346.27 477.31 352.25 478.37 358.47 479.63
  Q 360.68 480.08 362.63 479.53
  A 1.40 1.39 59.8 0 0 363.24 477.21
  C 361.00 474.92 355.22 475.16 352.31 475.50
  Q 345.73 476.27 339.09 475.85
  C 334.41 475.55 330.42 473.60 325.76 473.87
  A 1.35 1.34 71.6 0 0 324.72 475.96
  Z
  M 156.07 487.79
  L 156.22 485.49
  A 0.76 0.76 0.0 0 0 155.51 484.69
  L 153.23 484.54
  A 19.27 1.43 3.7 0 0 133.90 484.72
  L 133.84 485.68
  A 19.27 1.43 3.7 0 0 152.98 488.35
  L 155.27 488.50
  A 0.76 0.76 0.0 0 0 156.07 487.79
  Z
  M 128.3367 493.6393
  A 4.93 1.11 -2.1 0 0 123.3693 492.7107
  A 4.93 1.11 -2.1 0 0 118.4833 494.0007
  A 4.93 1.11 -2.1 0 0 123.4507 494.9293
  A 4.93 1.11 -2.1 0 0 128.3367 493.6393
  Z
  M 121.24 507.26
  L 121.36 504.29
  A 1.23 1.23 0.0 0 0 120.18 503.01
  L 111.04 502.64
  A 10.28 2.41 2.3 0 0 100.67 504.64
  L 100.65 505.26
  A 10.28 2.41 2.3 0 0 110.82 508.08
  L 119.96 508.44
  A 1.23 1.23 0.0 0 0 121.24 507.26
  Z
  M 251.4981 598.6503
  A 2.14 1.28 132.0 0 0 253.8812 597.9165
  A 2.14 1.28 132.0 0 0 254.3619 595.4697
  A 2.14 1.28 132.0 0 0 251.9788 596.2035
  A 2.14 1.28 132.0 0 0 251.4981 598.6503
  Z
  M 251.7647 612.4518
  A 4.35 3.56 97.6 0 0 255.8687 608.6108
  A 4.35 3.56 97.6 0 0 252.9153 603.8282
  A 4.35 3.56 97.6 0 0 248.8113 607.6692
  A 4.35 3.56 97.6 0 0 251.7647 612.4518
  Z
  M 212.18 630.51
  A 1.22 1.22 0.0 0 0 210.96 629.29
  A 1.22 1.22 0.0 0 0 209.74 630.51
  A 1.22 1.22 0.0 0 0 210.96 631.73
  A 1.22 1.22 0.0 0 0 212.18 630.51
  Z
  M 212.69 638.51
  A 1.89 1.89 0.0 0 0 210.80 636.62
  A 1.89 1.89 0.0 0 0 208.91 638.51
  A 1.89 1.89 0.0 0 0 210.80 640.40
  A 1.89 1.89 0.0 0 0 212.69 638.51
  Z
  M 210.41 652.15
  Q 210.41 650.25 210.93 648.23
  Q 211.13 647.48 210.83 646.80
  Q 210.72 646.56 210.51 646.41
  A 0.63 0.62 -60.4 0 0 209.58 646.67
  Q 207.06 652.50 205.81 657.57
  C 205.05 660.67 207.33 664.06 210.77 663.45
  C 215.44 662.63 215.08 655.17 214.28 651.77
  A 1.31 1.31 0.0 0 0 211.95 651.29
  L 211.14 652.39
  A 0.40 0.40 0.0 0 1 210.41 652.15
  Z"
/>
<path fill="#d80000" d="
  M 359.72 266.38
  Q 357.36 266.89 355.10 266.85
  Q 350.98 266.79 350.89 266.80
  Q 335.13 267.46 319.71 266.75
  C 313.53 266.46 307.37 267.02 301.18 266.60
  Q 294.58 266.16 287.34 266.28
  Q 265.25 266.66 243.17 266.70
  C 239.09 266.71 234.37 267.07 230.50 267.09
  Q 212.23 267.23 171.25 267.25
  Q 158.94 267.26 148.53 266.50
  Q 142.43 266.05 129.18 266.82
  Q 126.52 266.97 123.87 266.65
  Q 121.32 266.35 118.62 266.00
  Q 120.11 263.43 121.61 261.34
  Q 157.73 211.30 219.56 204.78
  C 228.24 203.86 237.26 202.94 246.02 204.02
  C 251.23 204.67 256.37 204.86 261.47 205.88
  Q 281.03 209.79 295.99 216.09
  C 321.48 226.85 343.83 243.71 359.72 266.38
  Z"
/>
<path fill="#ff0000" d="
  M 118.62 266.00
  Q 121.32 266.35 123.87 266.65
  Q 126.52 266.97 129.18 266.82
  Q 142.43 266.05 148.53 266.50
  Q 158.94 267.26 171.25 267.25
  Q 212.23 267.23 230.50 267.09
  C 234.37 267.07 239.09 266.71 243.17 266.70
  Q 265.25 266.66 287.34 266.28
  Q 294.58 266.16 301.18 266.60
  C 307.37 267.02 313.53 266.46 319.71 266.75
  Q 335.13 267.46 350.89 266.80
  Q 350.98 266.79 355.10 266.85
  Q 357.36 266.89 359.72 266.38
  C 376.33 290.01 384.40 318.45 383.94 347.24
  C 383.89 350.55 383.63 353.79 379.39 353.90
  Q 375.28 354.02 371.08 353.78
  Q 368.50 353.63 358.82 354.63
  A 0.73 0.73 0.0 0 0 358.18 355.22
  Q 358.09 355.75 358.63 355.89
  Q 366.75 357.87 374.61 359.77
  Q 378.31 360.67 381.70 362.47
  A 1.78 1.77 87.1 0 1 382.39 363.10
  Q 383.29 364.49 382.03 365.06
  Q 377.68 367.02 372.38 368.10
  Q 364.51 369.70 357.76 371.50
  Q 357.14 371.67 356.87 372.26
  A 0.73 0.73 0.0 0 0 357.39 373.27
  Q 366.97 375.30 377.21 376.51
  Q 380.67 376.92 385.83 378.65
  Q 386.38 378.83 386.09 379.33
  Q 385.26 380.75 383.66 381.38
  C 380.68 382.57 377.47 383.24 374.92 385.26
  Q 371.68 387.83 367.11 388.58
  A 0.89 0.88 78.4 0 0 366.40 389.66
  Q 366.53 390.18 367.04 390.34
  Q 373.45 392.38 378.93 393.25
  Q 380.65 393.53 380.45 395.29
  A 0.98 0.96 76.8 0 1 380.02 396.00
  C 377.36 397.74 373.03 398.30 369.66 398.61
  Q 367.77 398.79 366.11 399.65
  C 363.64 400.94 362.39 403.66 359.97 404.58
  C 356.63 405.85 353.08 405.86 349.59 406.35
  Q 347.72 406.61 347.01 408.39
  A 1.24 1.23 20.3 0 0 347.77 410.03
  L 349.98 410.77
  Q 349.97 411.45 349.61 411.97
  Q 349.33 412.39 348.82 412.35
  Q 344.95 412.05 343.33 415.53
  A 1.32 1.31 -73.8 0 0 344.35 417.39
  Q 348.06 417.87 351.43 418.70
  C 353.22 419.14 353.66 420.97 354.00 422.51
  Q 354.12 423.09 353.56 423.26
  Q 347.73 425.00 342.04 426.11
  Q 336.14 427.26 333.16 431.45
  A 1.88 1.86 -64.5 0 1 331.15 432.17
  L 326.20 430.82
  Q 325.54 430.64 325.68 431.30
  L 326.01 432.79
  Q 326.14 433.34 326.70 433.40
  Q 327.18 433.45 327.14 433.94
  Q 327.09 434.43 326.76 434.81
  Q 326.55 435.06 326.58 435.32
  Q 322.66 434.94 320.59 436.84
  Q 319.48 437.87 321.48 439.06
  Q 319.71 440.26 318.23 441.42
  Q 316.44 442.84 314.79 443.54
  Q 310.90 445.18 305.35 445.58
  Q 296.38 446.21 287.11 447.33
  Q 284.70 447.62 282.41 447.70
  C 278.46 447.84 274.41 448.58 270.66 449.56
  Q 267.70 450.34 270.38 451.81
  Q 272.38 452.90 273.98 454.42
  A 0.78 0.78 0.0 0 1 273.85 455.65
  Q 273.28 456.01 273.08 456.64
  Q 272.91 457.15 272.38 457.15
  Q 270.16 457.17 267.95 457.14
  Q 265.76 457.11 263.75 457.52
  C 261.45 458.00 259.40 457.05 257.12 456.89
  C 252.51 456.58 247.94 456.08 243.32 456.53
  Q 238.46 456.99 233.80 457.62
  Q 231.25 457.96 228.66 458.68
  C 222.90 460.30 217.63 457.11 212.15 458.82
  Q 207.95 460.14 203.15 460.32
  Q 201.21 460.40 200.52 458.46
  A 2.96 2.93 -2.8 0 0 198.45 456.60
  Q 192.57 455.15 186.55 453.73
  C 185.99 453.59 185.65 453.22 185.12 453.05
  Q 179.93 451.37 175.11 448.85
  C 173.67 448.10 172.97 446.66 171.53 445.96
  Q 171.07 445.73 170.86 445.25
  Q 170.32 444.02 170.76 442.92
  A 0.95 0.93 7.9 0 1 171.56 442.33
  L 176.23 442.00
  Q 183.96 443.53 192.00 442.94
  Q 198.88 442.45 203.46 443.09
  C 208.39 443.78 213.11 445.49 218.29 444.90
  Q 219.63 444.75 220.19 443.54
  A 1.11 1.10 24.1 0 0 219.62 442.06
  C 215.64 440.35 211.81 440.03 207.45 440.02
  Q 199.29 440.00 189.76 439.39
  Q 182.41 438.93 175.54 441.31
  Q 171.45 439.98 169.77 441.21
  Q 167.95 442.53 166.23 441.07
  Q 165.46 440.42 164.52 440.13
  Q 162.40 439.49 160.88 438.21
  L 166.20 436.65
  A 2.03 2.03 0.0 0 0 167.21 433.43
  Q 165.81 431.71 163.49 430.74
  Q 156.40 427.76 148.71 426.67
  Q 132.72 424.42 115.38 422.81
  Q 106.87 422.01 100.80 419.69
  Q 97.23 418.33 98.26 415.33
  Q 98.44 414.82 98.87 414.51
  Q 101.01 412.97 102.62 412.62
  Q 107.58 411.58 116.18 410.84
  Q 118.10 411.12 119.22 412.51
  Q 119.53 412.89 120.02 412.99
  C 121.84 413.33 123.52 412.93 125.28 412.98
  Q 126.58 413.02 127.74 412.69
  Q 130.45 411.91 133.24 411.49
  Q 134.97 411.23 136.20 410.56
  Q 138.02 409.58 140.01 409.11
  Q 148.80 407.04 154.35 406.72
  Q 156.35 406.61 158.54 406.22
  Q 162.57 405.49 163.46 405.43
  C 165.42 405.31 170.71 405.25 169.21 401.55
  Q 168.85 400.65 168.00 400.28
  Q 164.91 398.94 162.16 399.54
  Q 159.11 400.20 157.39 397.89
  Q 156.56 396.78 157.04 394.26
  Q 157.08 394.02 157.22 394.22
  Q 157.30 394.34 157.47 394.27
  Q 157.74 394.16 157.60 393.91
  Q 156.93 392.67 155.60 392.67
  Q 148.44 392.68 141.47 392.37
  Q 135.48 392.10 125.13 390.25
  C 120.93 389.50 116.75 389.57 112.52 389.63
  Q 112.38 389.63 112.28 389.53
  Q 112.19 389.43 112.08 389.35
  Q 112.04 389.33 112.01 389.33
  L 108.16 389.36
  Q 107.53 389.37 107.01 389.03
  Q 106.51 388.71 106.00 388.95
  Q 105.52 389.18 105.01 389.11
  L 102.22 388.78
  Q 101.72 388.73 101.53 389.18
  Q 100.96 390.48 99.76 391.16
  L 98.57 389.95
  A 1.11 1.10 48.3 0 1 98.66 388.32
  C 101.47 386.01 104.78 385.07 108.36 384.82
  Q 115.16 384.34 122.37 381.73
  Q 124.42 380.99 125.77 379.50
  A 2.21 2.21 0.0 0 0 125.48 376.27
  C 123.51 374.74 120.73 373.93 118.33 373.64
  Q 105.30 372.02 94.37 369.74
  Q 91.85 369.22 89.67 367.78
  Q 89.24 367.50 89.17 366.99
  Q 88.73 363.70 92.02 362.97
  C 96.56 361.96 101.22 362.15 105.89 361.02
  Q 106.39 360.90 106.69 360.54
  Q 107.12 360.02 106.74 359.44
  Q 106.48 359.04 105.99 358.91
  Q 103.04 358.07 102.00 358.06
  C 98.04 358.02 92.23 358.24 91.30 354.52
  Q 91.08 353.64 91.27 350.24
  Q 93.14 316.30 107.96 285.18
  Q 113.09 274.41 118.62 266.00
  Z
  M 306.7542 385.7177
  A 1.30 1.30 0.0 0 0 305.6710 384.2322
  L 288.2236 381.5000
  A 1.30 1.30 0.0 0 0 286.7382 382.5833
  L 286.7258 382.6623
  A 1.30 1.30 0.0 0 0 287.8090 384.1478
  L 305.2564 386.8800
  A 1.30 1.30 0.0 0 0 306.7418 385.7967
  L 306.7542 385.7177
  Z
  M 226.82 401.28
  Q 222.73 400.29 217.79 398.80
  C 213.23 397.43 208.16 399.17 203.69 397.34
  C 198.21 395.10 194.12 394.55 188.29 396.36
  C 183.32 397.91 178.00 397.51 172.94 397.60
  Q 171.92 397.62 171.24 398.28
  A 0.60 0.60 0.0 0 0 171.50 399.29
  C 178.52 401.28 185.42 401.23 192.66 401.62
  C 196.33 401.83 199.33 403.05 202.72 404.16
  A 8.56 8.49 46.4 0 0 207.57 404.30
  C 210.88 403.42 214.55 401.92 217.90 402.32
  C 220.34 402.62 226.10 403.79 228.33 402.71
  Q 230.75 401.52 228.05 401.44
  Q 227.40 401.42 226.82 401.28
  Z
  M 272.19 410.21
  Q 273.46 410.64 273.53 411.45
  Q 273.58 412.05 274.17 412.17
  C 277.67 412.85 281.71 412.47 285.28 412.25
  C 289.17 412.01 292.87 413.07 296.61 413.60
  Q 299.86 414.05 303.91 413.77
  C 308.41 413.46 313.09 414.04 317.69 414.45
  Q 321.42 414.78 324.54 413.99
  Q 327.85 413.15 324.47 412.71
  Q 319.73 412.09 316.20 410.92
  C 311.25 409.29 306.96 408.91 301.92 409.35
  C 296.72 409.80 291.31 408.35 286.33 406.79
  C 282.77 405.67 279.16 405.58 275.48 406.19
  Q 268.10 407.42 261.67 408.27
  Q 260.58 408.42 259.88 409.29
  Q 259.52 409.75 260.09 409.91
  C 263.68 410.93 267.73 410.50 271.57 410.14
  A 1.54 1.48 -37.4 0 1 272.19 410.21
  Z
  M 244.30 417.16
  Q 232.03 417.23 222.34 417.91
  Q 218.99 418.15 215.14 419.78
  Q 214.90 419.88 215.00 420.13
  L 215.14 420.48
  Q 215.18 420.58 215.29 420.55
  Q 219.30 419.14 223.11 418.87
  C 226.65 418.62 229.78 419.92 233.38 419.56
  Q 239.84 418.90 245.65 417.43
  Q 246.29 417.27 245.72 416.94
  Q 245.30 416.70 244.94 416.96
  Q 244.65 417.16 244.30 417.16
  Z
  M 234.7547 425.2478
  A 0.56 0.56 0.0 0 0 234.1375 424.7515
  L 223.9772 425.8553
  A 0.56 0.56 0.0 0 0 223.4810 426.4725
  L 223.4853 426.5122
  A 0.56 0.56 0.0 0 0 224.1025 427.0085
  L 234.2628 425.9047
  A 0.56 0.56 0.0 0 0 234.7590 425.2875
  L 234.7547 425.2478
  Z
  M 244.27 428.75
  Q 238.81 430.37 227.78 430.68
  Q 227.07 430.70 226.55 431.10
  Q 225.62 431.84 226.80 431.92
  C 231.62 432.23 236.04 432.46 240.99 431.83
  Q 245.81 431.22 250.64 430.62
  Q 252.63 430.37 254.39 430.40
  C 256.43 430.44 258.52 430.84 260.53 430.15
  Q 263.53 429.12 260.47 428.31
  C 256.38 427.21 251.47 427.70 247.27 428.14
  Q 245.78 428.30 244.27 428.75
  Z
  M 224.16 443.91
  C 226.24 444.41 230.09 444.69 229.76 447.72
  A 1.14 1.14 0.0 0 0 231.03 448.97
  C 234.48 448.58 237.80 448.11 241.26 448.22
  Q 250.95 448.55 259.61 447.93
  Q 261.41 447.80 263.11 447.01
  A 0.59 0.59 0.0 0 0 263.13 445.96
  Q 262.31 445.52 261.36 445.51
  Q 248.54 445.39 235.56 444.76
  Q 232.83 444.63 230.13 443.81
  Q 227.45 443.00 224.30 442.87
  Q 218.97 442.64 224.16 443.91
  Z"
/>
<rect fill="#000000" x="-10.13" y="-1.34" transform="translate(296.74,384.19) rotate(8.9)" width="20.26" height="2.68" rx="1.30"/>
<path fill="#d80000" d="
  M 116.18 410.84
  Q 120.35 409.52 124.48 408.42
  C 127.43 407.63 133.45 404.34 128.54 400.77
  Q 125.55 398.59 124.01 398.23
  Q 114.55 396.01 110.76 395.46
  Q 104.01 394.49 99.76 391.16
  Q 100.96 390.48 101.53 389.18
  Q 101.72 388.73 102.22 388.78
  L 105.01 389.11
  Q 105.52 389.18 106.00 388.95
  Q 106.51 388.71 107.01 389.03
  Q 107.53 389.37 108.16 389.36
  L 112.01 389.33
  Q 112.04 389.33 112.08 389.35
  Q 112.19 389.43 112.28 389.53
  Q 112.38 389.63 112.52 389.63
  C 116.75 389.57 120.93 389.50 125.13 390.25
  Q 135.48 392.10 141.47 392.37
  Q 148.44 392.68 155.60 392.67
  Q 156.93 392.67 157.60 393.91
  Q 157.74 394.16 157.47 394.27
  Q 157.30 394.34 157.22 394.22
  Q 157.08 394.02 157.04 394.26
  Q 156.56 396.78 157.39 397.89
  Q 159.11 400.20 162.16 399.54
  Q 164.91 398.94 168.00 400.28
  Q 168.85 400.65 169.21 401.55
  C 170.71 405.25 165.42 405.31 163.46 405.43
  Q 162.57 405.49 158.54 406.22
  Q 156.35 406.61 154.35 406.72
  Q 148.80 407.04 140.01 409.11
  Q 138.02 409.58 136.20 410.56
  Q 134.97 411.23 133.24 411.49
  Q 130.45 411.91 127.74 412.69
  Q 126.58 413.02 125.28 412.98
  C 123.52 412.93 121.84 413.33 120.02 412.99
  Q 119.53 412.89 119.22 412.51
  Q 118.10 411.12 116.18 410.84
  Z"
/>
<path fill="#000000" d="
  M 226.82 401.28
  Q 227.40 401.42 228.05 401.44
  Q 230.75 401.52 228.33 402.71
  C 226.10 403.79 220.34 402.62 217.90 402.32
  C 214.55 401.92 210.88 403.42 207.57 404.30
  A 8.56 8.49 46.4 0 1 202.72 404.16
  C 199.33 403.05 196.33 401.83 192.66 401.62
  C 185.42 401.23 178.52 401.28 171.50 399.29
  A 0.60 0.60 0.0 0 1 171.24 398.28
  Q 171.92 397.62 172.94 397.60
  C 178.00 397.51 183.32 397.91 188.29 396.36
  C 194.12 394.55 198.21 395.10 203.69 397.34
  C 208.16 399.17 213.23 397.43 217.79 398.80
  Q 222.73 400.29 226.82 401.28
  Z"
/>
<path fill="#000000" d="
  M 272.19 410.21
  A 1.54 1.48 -37.4 0 0 271.57 410.14
  C 267.73 410.50 263.68 410.93 260.09 409.91
  Q 259.52 409.75 259.88 409.29
  Q 260.58 408.42 261.67 408.27
  Q 268.10 407.42 275.48 406.19
  C 279.16 405.58 282.77 405.67 286.33 406.79
  C 291.31 408.35 296.72 409.80 301.92 409.35
  C 306.96 408.91 311.25 409.29 316.20 410.92
  Q 319.73 412.09 324.47 412.71
  Q 327.85 413.15 324.54 413.99
  Q 321.42 414.78 317.69 414.45
  C 313.09 414.04 308.41 413.46 303.91 413.77
  Q 299.86 414.05 296.61 413.60
  C 292.87 413.07 289.17 412.01 285.28 412.25
  C 281.71 412.47 277.67 412.85 274.17 412.17
  Q 273.58 412.05 273.53 411.45
  Q 273.46 410.64 272.19 410.21
  Z"
/>
<path fill="#d80000" d="
  M 349.98 410.77
  Q 358.68 413.05 367.04 416.46
  C 368.27 416.96 369.84 417.29 371.18 417.37
  C 372.95 417.47 373.98 419.28 372.65 420.63
  C 369.31 424.04 363.74 425.13 359.13 426.19
  A 1.35 1.34 60.8 0 0 358.49 428.46
  L 359.32 429.28
  A 1.42 1.42 0.0 0 1 358.88 431.59
  Q 354.60 433.44 349.64 433.92
  C 346.09 434.27 342.67 435.20 339.25 436.04
  Q 336.04 436.84 326.58 435.32
  Q 326.55 435.06 326.76 434.81
  Q 327.09 434.43 327.14 433.94
  Q 327.18 433.45 326.70 433.40
  Q 326.14 433.34 326.01 432.79
  L 325.68 431.30
  Q 325.54 430.64 326.20 430.82
  L 331.15 432.17
  A 1.88 1.86 -64.5 0 0 333.16 431.45
  Q 336.14 427.26 342.04 426.11
  Q 347.73 425.00 353.56 423.26
  Q 354.12 423.09 354.00 422.51
  C 353.66 420.97 353.22 419.14 351.43 418.70
  Q 348.06 417.87 344.35 417.39
  A 1.32 1.31 -73.8 0 1 343.33 415.53
  Q 344.95 412.05 348.82 412.35
  Q 349.33 412.39 349.61 411.97
  Q 349.97 411.45 349.98 410.77
  Z"
/>
<path fill="#d80000" d="
  M 244.94 416.96
  Q 245.30 416.70 245.72 416.94
  Q 246.29 417.27 245.65 417.43
  Q 239.84 418.90 233.38 419.56
  C 229.78 419.92 226.65 418.62 223.11 418.87
  Q 219.30 419.14 215.29 420.55
  Q 215.18 420.58 215.14 420.48
  L 215.00 420.13
  Q 214.90 419.88 215.14 419.78
  Q 218.99 418.15 222.34 417.91
  Q 232.03 417.23 244.30 417.16
  Q 244.65 417.16 244.94 416.96
  Z"
/>
<rect fill="#d80000" x="-5.67" y="-0.58" transform="translate(229.12,425.88) rotate(-6.2)" width="11.34" height="1.16" rx="0.56"/>
<path fill="#d80000" d="
  M 244.27 428.75
  Q 245.78 428.30 247.27 428.14
  C 251.47 427.70 256.38 427.21 260.47 428.31
  Q 263.53 429.12 260.53 430.15
  C 258.52 430.84 256.43 430.44 254.39 430.40
  Q 252.63 430.37 250.64 430.62
  Q 245.81 431.22 240.99 431.83
  C 236.04 432.46 231.62 432.23 226.80 431.92
  Q 225.62 431.84 226.55 431.10
  Q 227.07 430.70 227.78 430.68
  Q 238.81 430.37 244.27 428.75
  Z"
/>
<rect fill="#d80000" x="-3.45" y="-1.35" transform="translate(366.73,430.93) rotate(0.2)" width="6.90" height="2.70" rx="1.27"/>
<path fill="#d80000" d="
  M 160.88 438.21
  Q 162.40 439.49 164.52 440.13
  Q 165.46 440.42 166.23 441.07
  Q 167.95 442.53 169.77 441.21
  Q 171.45 439.98 175.54 441.31
  Q 175.10 441.06 174.84 441.13
  Q 174.00 441.36 174.96 441.76
  Q 175.43 441.96 176.23 442.00
  L 171.56 442.33
  A 0.95 0.93 7.9 0 0 170.76 442.92
  Q 170.32 444.02 170.86 445.25
  Q 171.07 445.73 171.53 445.96
  C 172.97 446.66 173.67 448.10 175.11 448.85
  Q 179.93 451.37 185.12 453.05
  C 185.65 453.22 185.99 453.59 186.55 453.73
  Q 192.57 455.15 198.45 456.60
  A 2.96 2.93 -2.8 0 1 200.52 458.46
  Q 201.21 460.40 203.15 460.32
  Q 207.95 460.14 212.15 458.82
  C 217.63 457.11 222.90 460.30 228.66 458.68
  Q 231.25 457.96 233.80 457.62
  Q 238.46 456.99 243.32 456.53
  C 247.94 456.08 252.51 456.58 257.12 456.89
  C 259.40 457.05 261.45 458.00 263.75 457.52
  Q 265.76 457.11 267.95 457.14
  Q 270.16 457.17 272.38 457.15
  Q 272.91 457.15 273.08 456.64
  Q 273.28 456.01 273.85 455.65
  A 0.78 0.78 0.0 0 0 273.98 454.42
  Q 272.38 452.90 270.38 451.81
  Q 267.70 450.34 270.66 449.56
  C 274.41 448.58 278.46 447.84 282.41 447.70
  Q 284.70 447.62 287.11 447.33
  Q 296.38 446.21 305.35 445.58
  Q 310.90 445.18 314.79 443.54
  Q 316.44 442.84 318.23 441.42
  Q 319.71 440.26 321.48 439.06
  Q 325.42 439.80 330.74 440.17
  Q 335.76 440.52 339.78 441.97
  Q 342.05 442.79 343.89 444.34
  A 1.53 1.53 0.0 0 1 343.80 446.76
  C 338.73 450.40 332.76 451.06 326.45 451.43
  C 322.59 451.65 315.30 452.41 312.47 455.46
  A 1.64 1.63 -44.6 0 0 312.45 457.67
  C 314.30 459.73 319.88 460.36 322.54 461.01
  A 1.86 1.85 85.6 0 1 323.84 462.13
  Q 324.74 464.39 322.47 465.31
  C 318.35 466.98 314.73 467.52 309.74 467.53
  Q 304.48 467.54 294.76 467.82
  Q 289.63 467.97 286.93 470.14
  Q 286.48 467.99 283.73 468.81
  Q 281.88 469.37 280.69 469.37
  Q 278.50 469.37 276.31 469.53
  Q 274.79 469.63 273.32 470.18
  Q 271.88 470.71 270.31 470.68
  Q 266.10 470.61 261.35 470.90
  Q 258.15 471.09 254.46 470.59
  Q 252.56 470.33 250.72 471.08
  Q 248.90 471.83 250.72 472.57
  Q 254.35 474.03 258.88 475.29
  Q 261.56 476.03 264.15 475.84
  C 266.21 475.69 268.46 475.40 270.57 475.55
  Q 271.07 475.59 271.53 475.40
  Q 272.42 475.06 273.21 475.42
  Q 273.40 475.50 273.60 475.48
  Q 275.26 475.25 276.33 476.44
  Q 277.28 477.49 278.23 478.63
  Q 278.52 478.98 278.16 479.25
  C 277.19 479.97 276.30 480.68 275.02 480.50
  Q 267.01 479.38 259.52 479.42
  Q 253.94 479.46 250.05 476.01
  C 249.43 475.46 248.44 474.92 247.59 474.88
  Q 235.89 474.36 224.73 472.63
  A 1.65 1.64 83.2 0 0 222.97 474.88
  Q 223.55 476.28 222.60 477.44
  C 220.99 479.41 218.04 480.77 215.89 482.12
  C 213.47 483.64 213.71 486.79 210.42 487.40
  Q 209.86 487.51 209.72 486.96
  L 209.54 486.25
  Q 209.41 485.73 209.02 485.38
  Q 207.72 484.20 205.72 484.93
  Q 196.10 481.28 185.57 479.55
  Q 180.07 478.65 176.68 477.67
  Q 172.96 476.59 167.98 475.05
  C 163.95 473.80 165.76 470.56 168.30 469.28
  Q 169.44 468.71 170.83 468.55
  Q 177.27 467.83 184.74 467.95
  Q 186.83 467.98 188.62 466.99
  A 1.30 1.29 60.0 0 0 189.10 465.19
  C 188.02 463.40 183.91 463.08 182.00 462.69
  Q 180.45 462.36 176.97 462.10
  Q 171.15 461.66 166.74 459.20
  A 1.44 1.44 0.0 0 1 166.96 456.58
  Q 169.42 455.72 171.27 453.69
  Q 171.67 453.25 171.19 452.89
  Q 169.91 451.91 168.53 451.68
  Q 160.79 450.37 152.72 448.68
  C 149.82 448.07 145.10 447.10 143.22 444.52
  A 1.80 1.80 0.0 0 1 143.52 442.08
  Q 145.10 440.75 147.26 440.29
  Q 154.42 438.78 160.88 438.21
  Z"
/>
<path fill="#000000" d="
  M 176.23 442.00
  Q 175.43 441.96 174.96 441.76
  Q 174.00 441.36 174.84 441.13
  Q 175.10 441.06 175.54 441.31
  Q 182.41 438.93 189.76 439.39
  Q 199.29 440.00 207.45 440.02
  C 211.81 440.03 215.64 440.35 219.62 442.06
  A 1.11 1.10 24.1 0 1 220.19 443.54
  Q 219.63 444.75 218.29 444.90
  C 213.11 445.49 208.39 443.78 203.46 443.09
  Q 198.88 442.45 192.00 442.94
  Q 183.96 443.53 176.23 442.00
  Z"
/>
<path fill="#d80000" d="
  M 224.16 443.91
  Q 218.97 442.64 224.30 442.87
  Q 227.45 443.00 230.13 443.81
  Q 232.83 444.63 235.56 444.76
  Q 248.54 445.39 261.36 445.51
  Q 262.31 445.52 263.13 445.96
  A 0.59 0.59 0.0 0 1 263.11 447.01
  Q 261.41 447.80 259.61 447.93
  Q 250.95 448.55 241.26 448.22
  C 237.80 448.11 234.48 448.58 231.03 448.97
  A 1.14 1.14 0.0 0 1 229.76 447.72
  C 230.09 444.69 226.24 444.41 224.16 443.91
  Z"
/>
<path fill="#d80000" d="
  M 135.68 447.91
  A 0.54 0.54 0.0 0 1 135.14 448.46
  L 133.98 448.46
  A 20.62 1.21 -0.4 0 1 113.35 447.40
  L 113.35 446.18
  A 20.62 1.21 -0.4 0 1 133.96 444.82
  L 135.12 444.82
  A 0.54 0.54 0.0 0 1 135.66 445.35
  L 135.68 447.91
  Z"
/>
<ellipse fill="#d80000" cx="0.00" cy="0.00" transform="translate(123.55,455.33) rotate(-3.4)" rx="5.08" ry="1.73"/>
<rect fill="#d80000" x="-8.99" y="-2.06" transform="translate(345.85,461.87) rotate(-1.5)" width="17.98" height="4.12" rx="1.98"/>
<path fill="#ff0000" d="
  M 286.93 470.14
  Q 285.34 472.20 285.85 474.26
  Q 285.97 474.75 286.40 475.02
  Q 287.79 475.91 289.32 476.41
  Q 295.50 478.42 301.72 480.01
  Q 303.07 481.76 299.66 481.50
  Q 298.53 481.41 297.38 481.03
  Q 294.64 480.10 291.51 480.73
  Q 288.29 481.38 284.94 481.64
  Q 281.69 481.90 278.95 483.82
  A 0.80 0.79 -43.0 0 0 278.90 485.09
  C 282.57 488.11 286.46 489.53 291.33 489.73
  Q 296.71 489.94 298.58 489.85
  Q 306.83 489.46 313.63 490.27
  Q 314.45 490.36 315.28 490.60
  Q 316.40 490.93 317.69 490.90
  Q 324.01 490.79 329.34 489.49
  Q 329.50 489.45 329.57 489.30
  Q 329.59 489.24 329.64 489.20
  Q 329.76 489.08 329.94 489.09
  Q 331.64 489.17 332.68 488.18
  Q 332.98 487.91 333.37 487.80
  Q 337.81 486.63 341.99 487.65
  Q 344.95 488.36 347.71 487.28
  Q 348.25 487.06 348.20 486.48
  Q 348.09 485.33 347.62 484.33
  Q 347.31 483.67 348.04 483.60
  L 349.53 483.45
  C 351.66 483.63 358.23 484.93 358.41 487.72
  A 1.36 1.36 0.0 0 1 357.37 489.14
  C 354.93 489.72 352.42 490.06 350.10 491.08
  C 347.09 492.40 345.14 494.03 341.56 494.22
  C 338.93 494.36 333.99 494.31 332.24 496.11
  Q 330.75 497.67 332.89 497.88
  Q 335.47 498.13 337.99 498.07
  Q 338.73 498.06 339.37 498.56
  A 0.67 0.67 0.0 0 1 339.26 499.68
  Q 336.16 501.34 332.84 503.23
  C 329.04 505.40 325.71 505.46 321.56 505.22
  A 1.49 1.49 0.0 0 0 320.00 506.92
  C 320.49 510.25 324.36 511.36 327.04 512.32
  A 0.64 0.63 37.0 0 1 327.20 513.43
  C 323.65 516.01 320.06 515.86 316.08 517.08
  Q 309.85 518.98 303.90 521.27
  L 302.53 520.67
  Q 301.91 520.40 302.31 519.85
  Q 302.54 519.54 302.34 519.26
  Q 302.08 518.88 301.62 518.85
  C 297.86 518.57 294.27 518.22 290.57 518.47
  C 287.35 518.70 284.10 518.42 280.82 518.68
  Q 269.78 519.57 260.56 520.65
  Q 250.76 521.80 243.89 525.74
  C 241.81 526.94 239.12 526.84 237.12 525.67
  C 232.46 522.93 222.73 524.66 218.07 526.16
  C 217.00 526.50 215.85 526.31 214.75 526.57
  A 0.66 0.66 0.0 0 1 213.94 525.93
  C 213.91 522.61 209.74 521.25 206.49 520.32
  A 0.73 0.68 -46.7 0 0 205.99 520.35
  Q 205.53 520.54 205.44 520.11
  A 0.56 0.56 0.0 0 0 204.95 519.68
  L 203.96 519.56
  Q 203.36 519.49 203.34 518.88
  Q 203.30 516.74 205.24 516.13
  C 211.30 514.22 217.53 512.91 223.45 509.88
  Q 223.89 509.65 224.17 509.24
  Q 226.22 506.23 230.26 506.26
  Q 240.44 506.88 250.76 507.36
  Q 255.10 507.56 257.90 507.22
  C 262.08 506.70 265.79 503.44 270.29 503.48
  Q 280.90 503.58 291.46 503.30
  Q 292.53 503.28 293.25 502.63
  Q 294.21 501.77 292.98 501.39
  Q 289.69 500.38 286.74 500.07
  Q 278.13 499.15 270.11 498.12
  Q 264.47 497.41 259.73 498.24
  Q 253.64 499.32 247.70 500.10
  C 243.96 500.60 240.59 502.08 236.71 502.62
  Q 233.36 503.08 230.26 503.94
  L 229.03 504.65
  Q 228.55 504.93 227.98 504.92
  Q 224.12 504.82 220.58 506.23
  Q 217.68 507.39 214.29 507.91
  Q 210.97 508.42 207.83 508.72
  Q 207.27 508.78 206.71 508.74
  Q 206.05 508.71 205.63 509.24
  C 204.81 510.31 204.06 511.02 203.88 512.42
  Q 203.81 512.94 203.31 513.05
  Q 201.21 513.53 199.31 514.17
  Q 198.76 514.36 198.14 514.38
  Q 197.43 514.40 196.88 514.84
  Q 196.49 515.15 195.99 515.11
  C 192.51 514.80 188.27 515.34 184.91 514.40
  Q 183.20 513.91 181.36 513.59
  Q 180.86 513.50 180.55 513.10
  Q 180.23 512.69 179.87 513.05
  A 0.52 0.50 -54.5 0 1 179.29 513.16
  Q 178.46 512.78 177.85 513.34
  Q 177.48 513.66 176.99 513.61
  Q 175.25 513.41 173.49 513.12
  Q 171.85 512.86 171.14 511.50
  Q 170.92 511.09 170.45 511.09
  L 158.90 511.28
  Q 158.44 511.29 158.03 511.06
  C 156.61 510.25 155.47 510.91 154.01 510.88
  C 151.19 510.82 148.05 510.57 145.43 511.67
  Q 144.36 512.12 143.24 511.80
  Q 142.60 511.62 141.95 511.81
  L 137.49 513.07
  C 134.07 512.24 124.12 507.59 129.65 503.39
  Q 132.47 501.25 137.12 500.49
  Q 144.93 499.21 153.02 497.83
  C 159.60 496.70 166.16 496.97 172.70 496.89
  C 178.86 496.82 185.35 495.94 191.61 495.38
  Q 197.35 494.88 205.00 492.46
  Q 210.19 490.83 205.72 484.93
  Q 207.72 484.20 209.02 485.38
  Q 209.41 485.73 209.54 486.25
  L 209.72 486.96
  Q 209.86 487.51 210.42 487.40
  C 213.71 486.79 213.47 483.64 215.89 482.12
  C 218.04 480.77 220.99 479.41 222.60 477.44
  Q 223.55 476.28 222.97 474.88
  A 1.65 1.64 83.2 0 1 224.73 472.63
  Q 235.89 474.36 247.59 474.88
  C 248.44 474.92 249.43 475.46 250.05 476.01
  Q 253.94 479.46 259.52 479.42
  Q 267.01 479.38 275.02 480.50
  C 276.30 480.68 277.19 479.97 278.16 479.25
  Q 278.52 478.98 278.23 478.63
  Q 277.28 477.49 276.33 476.44
  Q 275.26 475.25 273.60 475.48
  Q 273.40 475.50 273.21 475.42
  Q 272.42 475.06 271.53 475.40
  Q 271.07 475.59 270.57 475.55
  C 268.46 475.40 266.21 475.69 264.15 475.84
  Q 261.56 476.03 258.88 475.29
  Q 254.35 474.03 250.72 472.57
  Q 248.90 471.83 250.72 471.08
  Q 252.56 470.33 254.46 470.59
  Q 258.15 471.09 261.35 470.90
  Q 266.10 470.61 270.31 470.68
  Q 271.88 470.71 273.32 470.18
  Q 274.79 469.63 276.31 469.53
  Q 278.50 469.37 280.69 469.37
  Q 281.88 469.37 283.73 468.81
  Q 286.48 467.99 286.93 470.14
  Z"
/>
<path fill="#ff0000" d="
  M 126.90 471.07
  Q 129.94 470.17 133.06 470.00
  Q 142.75 469.48 151.37 470.04
  Q 152.73 470.12 154.08 470.47
  Q 154.67 470.63 154.92 471.19
  Q 155.35 472.22 154.95 473.06
  Q 154.67 473.66 154.01 473.77
  C 146.27 475.10 138.28 474.57 130.60 474.97
  Q 127.93 475.11 125.61 473.71
  A 0.87 0.84 18.5 0 1 125.19 472.90
  Q 125.32 471.54 126.90 471.07
  Z"
/>
<path fill="#ff0000" d="
  M 340.36 478.31
  C 335.71 479.09 327.97 480.85 324.72 475.96
  A 1.35 1.34 71.6 0 1 325.76 473.87
  C 330.42 473.60 334.41 475.55 339.09 475.85
  Q 345.73 476.27 352.31 475.50
  C 355.22 475.16 361.00 474.92 363.24 477.21
  A 1.40 1.39 59.8 0 1 362.63 479.53
  Q 360.68 480.08 358.47 479.63
  C 352.25 478.37 346.27 477.31 340.36 478.31
  Z"
/>
<path fill="#d80000" d="
  M 301.72 480.01
  Q 308.77 481.77 315.89 482.65
  Q 316.81 482.76 323.28 483.99
  Q 330.06 485.27 337.73 483.40
  Q 342.68 482.19 349.53 483.45
  L 348.04 483.60
  Q 347.31 483.67 347.62 484.33
  Q 348.09 485.33 348.20 486.48
  Q 348.25 487.06 347.71 487.28
  Q 344.95 488.36 341.99 487.65
  Q 337.81 486.63 333.37 487.80
  Q 332.98 487.91 332.68 488.18
  Q 331.64 489.17 329.94 489.09
  Q 329.76 489.08 329.64 489.20
  Q 329.59 489.24 329.57 489.30
  Q 329.50 489.45 329.34 489.49
  Q 324.01 490.79 317.69 490.90
  Q 316.40 490.93 315.28 490.60
  Q 314.45 490.36 313.63 490.27
  Q 306.83 489.46 298.58 489.85
  Q 296.71 489.94 291.33 489.73
  C 286.46 489.53 282.57 488.11 278.90 485.09
  A 0.80 0.79 -43.0 0 1 278.95 483.82
  Q 281.69 481.90 284.94 481.64
  Q 288.29 481.38 291.51 480.73
  Q 294.64 480.10 297.38 481.03
  Q 298.53 481.41 299.66 481.50
  Q 303.07 481.76 301.72 480.01
  Z"
/>
<path fill="#d80000" d="
  M 156.07 487.79
  A 0.76 0.76 0.0 0 1 155.27 488.50
  L 152.98 488.35
  A 19.27 1.43 3.7 0 1 133.84 485.68
  L 133.90 484.72
  A 19.27 1.43 3.7 0 1 153.23 484.54
  L 155.51 484.69
  A 0.76 0.76 0.0 0 1 156.22 485.49
  L 156.07 487.79
  Z"
/>
<ellipse fill="#d80000" cx="0.00" cy="0.00" transform="translate(123.41,493.82) rotate(-2.1)" rx="4.93" ry="1.11"/>
<path fill="#000000" d="
  M 230.26 506.26
  Q 229.09 505.93 229.41 505.28
  Q 229.68 504.74 230.26 503.94
  Q 233.36 503.08 236.71 502.62
  C 240.59 502.08 243.96 500.60 247.70 500.10
  Q 253.64 499.32 259.73 498.24
  Q 264.47 497.41 270.11 498.12
  Q 278.13 499.15 286.74 500.07
  Q 289.69 500.38 292.98 501.39
  Q 294.21 501.77 293.25 502.63
  Q 292.53 503.28 291.46 503.30
  Q 280.90 503.58 270.29 503.48
  C 265.79 503.44 262.08 506.70 257.90 507.22
  Q 255.10 507.56 250.76 507.36
  Q 240.44 506.88 230.26 506.26
  Z"
/>
<path fill="#ff0000" d="
  M 121.24 507.26
  A 1.23 1.23 0.0 0 1 119.96 508.44
  L 110.82 508.08
  A 10.28 2.41 2.3 0 1 100.65 505.26
  L 100.67 504.64
  A 10.28 2.41 2.3 0 1 111.04 502.64
  L 120.18 503.01
  A 1.23 1.23 0.0 0 1 121.36 504.29
  L 121.24 507.26
  Z"
/>
<path fill="#d80000" d="
  M 230.26 503.94
  Q 229.68 504.74 229.41 505.28
  Q 229.09 505.93 230.26 506.26
  Q 226.22 506.23 224.17 509.24
  Q 223.89 509.65 223.45 509.88
  C 217.53 512.91 211.30 514.22 205.24 516.13
  Q 203.30 516.74 203.34 518.88
  Q 203.36 519.49 203.96 519.56
  L 204.95 519.68
  A 0.56 0.56 0.0 0 1 205.44 520.11
  Q 205.53 520.54 205.99 520.35
  A 0.73 0.68 -46.7 0 1 206.49 520.32
  C 209.74 521.25 213.91 522.61 213.94 525.93
  A 0.66 0.66 0.0 0 0 214.75 526.57
  C 215.85 526.31 217.00 526.50 218.07 526.16
  C 222.73 524.66 232.46 522.93 237.12 525.67
  C 239.12 526.84 241.81 526.94 243.89 525.74
  Q 250.76 521.80 260.56 520.65
  Q 269.78 519.57 280.82 518.68
  C 284.10 518.42 287.35 518.70 290.57 518.47
  C 294.27 518.22 297.86 518.57 301.62 518.85
  Q 302.08 518.88 302.34 519.26
  Q 302.54 519.54 302.31 519.85
  Q 301.91 520.40 302.53 520.67
  L 303.90 521.27
  L 296.81 522.70
  Q 295.58 522.95 296.03 524.12
  Q 296.36 524.97 297.89 525.33
  Q 302.93 526.52 307.99 527.56
  C 312.81 528.55 316.47 530.03 320.48 532.25
  A 1.20 1.20 0.0 0 1 320.99 533.78
  Q 320.51 534.85 319.19 535.14
  Q 313.13 536.45 307.73 537.98
  C 304.95 538.77 303.06 540.76 301.06 542.64
  Q 299.26 544.32 295.47 544.59
  Q 290.79 544.92 285.92 545.06
  Q 284.04 545.11 283.40 546.67
  A 1.11 1.10 -58.2 0 0 283.69 547.92
  C 286.60 550.49 291.75 551.46 295.46 552.42
  Q 301.07 553.87 300.36 558.73
  C 299.60 564.02 291.32 566.31 286.98 567.21
  Q 284.78 567.66 279.15 570.83
  Q 277.17 571.15 274.99 571.00
  C 271.65 570.79 270.46 575.44 267.10 574.48
  A 1.56 1.53 -45.6 0 0 266.16 574.50
  Q 264.50 575.07 262.87 575.32
  C 260.53 575.68 258.67 574.35 256.35 574.55
  Q 248.29 575.25 238.88 575.50
  Q 238.45 575.51 238.45 575.09
  L 238.45 574.82
  Q 238.45 574.15 239.11 574.09
  Q 247.94 573.32 254.27 570.07
  Q 259.07 567.62 263.54 566.15
  C 268.43 564.54 273.91 564.58 279.06 563.80
  Q 280.99 563.50 282.31 561.30
  A 0.49 0.47 22.3 0 1 282.83 561.09
  Q 283.00 561.14 283.17 561.14
  Q 283.56 561.13 283.18 561.08
  Q 283.04 561.06 282.94 560.93
  Q 282.78 560.73 282.92 560.51
  Q 284.09 558.71 282.40 557.13
  A 1.08 1.06 64.4 0 0 281.60 556.84
  Q 273.78 557.35 266.57 556.49
  C 261.53 555.90 257.12 556.58 252.32 557.17
  Q 251.66 557.25 251.22 556.76
  Q 250.72 556.23 250.32 555.64
  Q 249.77 554.84 248.94 554.39
  Q 247.42 553.56 245.39 553.91
  Q 241.61 554.57 236.75 552.64
  Q 234.91 551.90 227.71 551.59
  Q 222.37 547.37 217.29 546.40
  Q 208.66 544.77 200.50 542.92
  Q 196.54 542.03 193.88 540.13
  C 192.53 539.16 192.21 536.85 193.76 535.82
  Q 196.49 534.00 199.09 533.32
  Q 202.79 532.35 206.55 530.66
  A 1.33 1.33 0.0 0 0 206.97 528.54
  Q 204.66 526.09 201.48 525.15
  C 195.74 523.45 189.70 522.10 183.72 521.41
  Q 163.36 519.04 151.76 516.94
  Q 147.13 516.10 137.49 513.07
  L 141.95 511.81
  Q 142.60 511.62 143.24 511.80
  Q 144.36 512.12 145.43 511.67
  C 148.05 510.57 151.19 510.82 154.01 510.88
  C 155.47 510.91 156.61 510.25 158.03 511.06
  Q 158.44 511.29 158.90 511.28
  L 170.45 511.09
  Q 170.92 511.09 171.14 511.50
  Q 171.85 512.86 173.49 513.12
  Q 175.25 513.41 176.99 513.61
  Q 177.48 513.66 177.85 513.34
  Q 178.46 512.78 179.29 513.16
  A 0.52 0.50 -54.5 0 0 179.87 513.05
  Q 180.23 512.69 180.55 513.10
  Q 180.86 513.50 181.36 513.59
  Q 183.20 513.91 184.91 514.40
  C 188.27 515.34 192.51 514.80 195.99 515.11
  Q 196.49 515.15 196.88 514.84
  Q 197.43 514.40 198.14 514.38
  Q 198.76 514.36 199.31 514.17
  Q 201.21 513.53 203.31 513.05
  Q 203.81 512.94 203.88 512.42
  C 204.06 511.02 204.81 510.31 205.63 509.24
  Q 206.05 508.71 206.71 508.74
  Q 207.27 508.78 207.83 508.72
  Q 210.97 508.42 214.29 507.91
  Q 217.68 507.39 220.58 506.23
  Q 224.12 504.82 227.98 504.92
  Q 228.55 504.93 229.03 504.65
  L 230.26 503.94
  Z"
/>
<path fill="#ff0000" d="
  M 279.15 570.83
  C 278.90 573.91 280.47 579.11 275.76 579.45
  Q 271.48 579.76 267.21 580.11
  Q 264.57 580.02 261.96 579.63
  Q 258.70 579.13 256.74 579.14
  C 253.67 579.14 250.57 579.47 247.50 579.09
  Q 245.33 578.83 242.99 579.08
  C 241.06 579.29 239.02 578.99 237.12 578.87
  Q 236.42 578.82 232.96 579.23
  Q 231.05 579.46 229.11 579.21
  Q 224.48 578.61 219.91 577.77
  C 216.15 577.08 212.51 577.45 208.72 577.66
  Q 208.16 577.69 207.88 578.18
  Q 207.13 579.51 208.21 580.94
  Q 208.68 581.55 208.60 582.25
  A 0.72 0.72 0.0 0 1 207.59 582.84
  Q 205.22 581.82 202.34 582.06
  Q 198.07 580.60 194.51 577.45
  C 192.26 575.46 189.93 573.71 187.37 576.70
  Q 185.79 578.54 186.36 580.68
  C 187.16 583.67 190.06 592.12 186.60 594.13
  C 184.29 595.48 181.70 594.62 181.00 591.95
  Q 180.37 589.52 180.57 587.18
  Q 181.36 578.17 179.38 569.99
  Q 178.57 566.62 181.97 565.88
  C 186.33 564.95 190.93 563.84 195.27 563.41
  C 205.32 562.42 215.69 561.56 225.77 559.80
  Q 228.56 559.32 228.66 556.01
  Q 228.74 553.39 227.71 551.59
  Q 234.91 551.90 236.75 552.64
  Q 241.61 554.57 245.39 553.91
  Q 247.42 553.56 248.94 554.39
  Q 249.77 554.84 250.32 555.64
  Q 250.72 556.23 251.22 556.76
  Q 251.66 557.25 252.32 557.17
  C 257.12 556.58 261.53 555.90 266.57 556.49
  Q 273.78 557.35 281.60 556.84
  A 1.08 1.06 64.4 0 1 282.40 557.13
  Q 284.09 558.71 282.92 560.51
  Q 282.78 560.73 282.94 560.93
  Q 283.04 561.06 283.18 561.08
  Q 283.56 561.13 283.17 561.14
  Q 283.00 561.14 282.83 561.09
  A 0.49 0.47 22.3 0 0 282.31 561.30
  Q 280.99 563.50 279.06 563.80
  C 273.91 564.58 268.43 564.54 263.54 566.15
  Q 259.07 567.62 254.27 570.07
  Q 247.94 573.32 239.11 574.09
  Q 238.45 574.15 238.45 574.82
  L 238.45 575.09
  Q 238.45 575.51 238.88 575.50
  Q 248.29 575.25 256.35 574.55
  C 258.67 574.35 260.53 575.68 262.87 575.32
  Q 264.50 575.07 266.16 574.50
  A 1.56 1.53 -45.6 0 1 267.10 574.48
  C 270.46 575.44 271.65 570.79 274.99 571.00
  Q 277.17 571.15 279.15 570.83
  Z"
/>
<path fill="#d80000" d="
  M 267.21 580.11
  C 262.34 580.99 259.63 584.62 256.18 587.51
  Q 255.85 587.79 255.44 587.65
  Q 250.28 585.95 245.33 583.84
  C 242.82 582.77 239.36 583.09 237.80 585.38
  Q 235.24 589.15 234.15 593.49
  Q 232.92 598.40 232.17 603.84
  C 231.21 610.71 231.24 618.34 231.57 625.09
  Q 232.35 640.87 233.04 656.80
  Q 233.48 666.81 233.53 680.23
  Q 233.55 685.17 232.07 688.98
  C 230.98 691.78 226.75 694.39 224.19 691.49
  Q 221.72 688.68 221.74 684.75
  Q 221.84 666.34 222.28 659.19
  Q 222.53 655.19 222.58 651.59
  C 222.73 642.06 223.20 632.58 223.72 623.00
  Q 223.98 618.24 223.23 613.51
  C 222.54 609.14 217.37 609.64 216.43 613.49
  Q 215.63 616.77 214.66 619.95
  C 213.59 623.46 208.67 623.88 208.71 619.44
  C 208.74 616.25 208.80 613.07 209.39 609.94
  Q 210.69 603.11 210.69 594.75
  Q 210.69 589.72 208.99 585.56
  C 207.94 582.98 204.69 582.95 202.34 582.06
  Q 205.22 581.82 207.59 582.84
  A 0.72 0.72 0.0 0 0 208.60 582.25
  Q 208.68 581.55 208.21 580.94
  Q 207.13 579.51 207.88 578.18
  Q 208.16 577.69 208.72 577.66
  C 212.51 577.45 216.15 577.08 219.91 577.77
  Q 224.48 578.61 229.11 579.21
  Q 231.05 579.46 232.96 579.23
  Q 236.42 578.82 237.12 578.87
  C 239.02 578.99 241.06 579.29 242.99 579.08
  Q 245.33 578.83 247.50 579.09
  C 250.57 579.47 253.67 579.14 256.74 579.14
  Q 258.70 579.13 261.96 579.63
  Q 264.57 580.02 267.21 580.11
  Z"
/>
<ellipse fill="#d80000" cx="0.00" cy="0.00" transform="translate(252.93,597.06) rotate(132.0)" rx="2.14" ry="1.28"/>
<ellipse fill="#ff0000" cx="0.00" cy="0.00" transform="translate(252.34,608.14) rotate(97.6)" rx="4.35" ry="3.56"/>
<circle fill="#d80000" cx="210.96" cy="630.51" r="1.22"/>
<circle fill="#d80000" cx="210.80" cy="638.51" r="1.89"/>
<path fill="#ff0000" d="
  M 211.14 652.39
  L 211.95 651.29
  A 1.31 1.31 0.0 0 1 214.28 651.77
  C 215.08 655.17 215.44 662.63 210.77 663.45
  C 207.33 664.06 205.05 660.67 205.81 657.57
  Q 207.06 652.50 209.58 646.67
  A 0.63 0.62 -60.4 0 1 210.51 646.41
  Q 210.72 646.56 210.83 646.80
  Q 211.13 647.48 210.93 648.23
  Q 210.41 650.25 210.41 652.15
  A 0.40 0.40 0.0 0 0 211.14 652.39
  Z"
/>
</svg>
